<?xml version="1.0" encoding="utf-8"?>
<!-- Generator: Adobe Illustrator 19.2.1, SVG Export Plug-In . SVG Version: 6.00 Build 0)  -->
<svg version="1.1" xmlns="http://www.w3.org/2000/svg" xmlns:xlink="http://www.w3.org/1999/xlink" x="0px" y="0px"
	 viewBox="0 0 1000 500" style="enable-background:new 0 0 1000 500;" xml:space="preserve">
<style type="text/css">
	.st0{fill:#FFFFFF;}
</style>
<g id="Capa_1">
</g>
<g id="Capa_2">
	<g transform="translate(0.000000,300.000000) scale(0.100000,-0.100000)">
		<path class="st0" d="M1561.7,699.1c0-416.9-5.6-458.6-55.6-514.2c-111.2-119.5-305.7-47.2-305.7,114c0,105.6,19.5,139,102.8,183.4
			c41.7,22.2,83.4,22.2,133.4,2.8c69.5-25,72.3-22.2,63.9,47.2c-8.3,66.7-22.2,77.8-105.6,86.2c-175.1,13.9-333.5-130.6-333.5-305.7
			c0-105.6,86.2-239,183.4-286.3c127.9-61.1,269.6-30.6,358.5,75c69.5,80.6,69.5,91.7,69.5,567c0,464.2-2.8,483.6-55.6,483.6
			C1564.5,1152.1,1561.7,1132.6,1561.7,699.1z"/>
		<path class="st0" d="M1728.5,674c0-428-5.6-489.2-52.8-561.4C1600.6,1.4,1517.2-40.2,1358.8-43c-111.2,0-147.3,13.9-236.2,94.5
			c-94.5,88.9-102.8,108.4-102.8,244.6c0,102.8,16.7,169.5,55.6,222.3c72.3,97.3,247.4,169.5,350.2,147.3
			c72.3-16.7,80.6-11.1,80.6,52.8c0,69.5-8.3,72.3-141.7,72.3c-272.4,0-469.7-200.1-469.7-472.5c2.8-255.7,125.1-411.3,366.9-472.5
			c222.3-55.6,461.4,50,539.2,239c27.8,66.7,38.9,227.9,38.9,580.9c0,466.9-2.8,486.4-55.6,486.4
			C1731.2,1152.1,1728.5,1132.6,1728.5,674z"/>
		<path class="st0" d="M3057,674l-8.3-478.1l-75-41.7c-169.5-97.3-341.9,97.3-230.7,264c41.7,63.9,61.1,72.3,164,61.1
			c97.3-11.1,116.7-5.6,114,30.6c-8.3,119.5-114,147.3-275.2,72.3c-114-55.6-161.2-136.2-161.2-272.4
			c2.8-216.8,194.6-361.3,400.2-300.2c177.9,55.6,189,91.7,189,647.6c0,475.3-2.8,494.7-55.6,494.7S3062.6,1129.9,3057,674z"/>
		<path class="st0" d="M3229.3,651.8V151.5l-77.8-86.2c-180.7-200.1-533.6-127.9-617,130.6c-83.4,244.6,158.4,517,414.1,466.9
			c66.7-13.9,77.8-8.3,72.3,50c-2.8,52.8-22.2,66.7-111.2,72.3c-150.1,13.9-219.6-11.1-336.3-111.2
			c-177.9-158.4-222.3-353-125.1-567c136.2-300.2,533.6-375.2,775.4-141.7c125.1,119.5,144.5,219.6,144.5,736.5v450.3h-69.5h-69.5
			V651.8z"/>
		<path class="st0" d="M4563.4,660.2c0-425.2,8.3-511.4,52.8-611.5c66.7-144.5,186.2-211.2,391.9-214
			c136.2-2.8,152.9,2.8,161.2,55.6c8.3,52.8-8.3,61.1-147.3,72.3c-122.3,11.1-172.3,30.6-230.7,88.9l-75,72.3l-8.3,514.2l-8.3,514.2
			h-69.5h-66.7V660.2z"/>
		<path class="st0" d="M1950.8,318.3v-472.5h69.5h69.5v472.5v472.5h-69.5h-69.5V318.3z"/>
		<path class="st0" d="M2145.4,318.3v-472.5h69.5h69.5v472.5v472.5h-69.5h-69.5V318.3z"/>
		<path class="st0" d="M3712.9,738c-158.4-97.3-219.6-216.8-219.6-425.2c0-144.5,13.9-202.9,58.4-264
			c197.3-264,539.2-294.6,767.1-63.9c58.4,58.4,105.6,119.5,105.6,136.2c0,58.4-105.6,30.6-191.8-50
			c-216.8-202.9-533.6-116.7-617,164c-27.8,88.9-25,122.3,19.5,211.2c63.9,130.6,211.2,233.5,328,233.5
			c180.7,0,350.2-175.1,350.2-361.3c0-72.3,11.1-83.4,72.3-83.4c72.3,0,72.3,5.6,61.1,125.1c-19.5,158.4-127.9,325.2-252.9,383.6
			C4060.3,807.5,3821.3,804.7,3712.9,738z"/>
		<path class="st0" d="M5550.1,738c-291.8-180.7-341.9-533.6-111.2-767.1c214-214,578.1-175.1,758.8,77.8l61.1,88.9l-58.4,8.3
			c-33.4,5.6-88.9-19.5-133.4-58.4c-147.3-139-294.6-166.8-450.3-88.9c-258.5,136.2-244.6,530.9,22.2,644.8
			c219.6,88.9,469.7-55.6,500.3-291.8c11.1-88.9,27.8-116.7,66.7-116.7c44.5,0,52.8,22.2,52.8,122.3c0,141.7-80.6,275.2-219.6,369.7
			C5917,810.2,5672.4,815.8,5550.1,738z"/>
		<path class="st0" d="M6342.2,574c77.8-122.3,139-233.5,139-252.9c0-19.5-52.8-116.7-119.5-219.6C6295-1.3,6231-101.4,6219.9-118.1
			c-13.9-25,2.8-36.1,58.4-36.1c69.5,0,94.5,27.8,211.2,219.6c72.3,122.3,130.6,236.2,130.6,258.5c0,19.5-58.4,133.4-127.9,252.9
			c-111.2,189-133.4,214-205.7,214h-83.4L6342.2,574z"/>
		<path class="st0" d="M6870.3,576.8c-69.5-119.5-127.9-227.9-130.6-244.6c-2.8-13.9,52.8-127.9,127.9-250.1
			c105.6-177.9,147.3-225.1,205.7-230.7c41.7-5.6,75,0,75,13.9c0,11.1-63.9,116.7-139,230.7c-75,114-139,216.8-139,227.9
			c0,11.1,52.8,105.6,119.5,208.5c66.7,105.6,130.6,205.7,141.7,225.1c13.9,22.2-2.8,33.4-58.4,33.4
			C7006.5,790.8,6978.7,763,6870.3,576.8z"/>
		<path class="st0" d="M7328.9,726.9c-291.8-164-341.9-522.5-111.2-756c225.1-222.3,617-175.1,772.7,94.5c50,86.2,50,86.2-11.1,86.2
			c-36.1,0-105.6-41.7-158.4-88.9c-83.4-83.4-108.4-91.7-258.5-91.7c-158.4,0-172.3,5.6-264,102.8c-75,83.4-94.5,127.9-94.5,216.8
			c0,350.2,386.3,500.3,639.3,247.4c50-52.8,105.6-80.6,141.7-75c55.6,8.3,55.6,8.3-8.3,105.6
			C7831.9,779.7,7548.4,851.9,7328.9,726.9z"/>
		<path class="st0" d="M8393.4,735.2C8140.4,599,8062.6,312.7,8212.7,48.7c91.7-164,344.6-258.5,542-205.7
			c144.5,41.7,297.4,189,341.9,333.5C9213.3,571.2,8763,929.8,8393.4,735.2z M8779.7,626.8c255.7-116.7,277.9-444.7,38.9-605.9
			C8585.1-137.5,8260,26.5,8260,304.4c0,150.1,94.5,294.6,222.3,339.1C8612.9,687.9,8643.5,687.9,8779.7,626.8z"/>
		<path class="st0" d="M8410,529.5c-108.4-108.4-125.1-247.4-47.2-378C8512.9-104.2,8927,18.1,8927,318.3
			c0,94.5-16.7,133.4-94.5,211.2S8715.8,624,8621.3,624S8487.9,607.3,8410,529.5z"/>
		<path class="st0" d="M3763,546.2c-227.9-214-58.4-567,252.9-525.3c61.1,8.3,136.2,41.7,169.5,75l58.4,61.1l-169.5-19.5
			c-141.7-16.7-177.9-11.1-219.6,33.4c-50,47.2-44.5,50,175.1,58.4l227.9,8.3V335c0,77.8-22.2,122.3-94.5,194.6
			C4038.1,654.6,3888,660.2,3763,546.2z"/>
		<path class="st0" d="M5575.1,529.5c-77.8-77.8-94.5-116.7-94.5-211.2s16.7-133.4,94.5-211.2c75-75,116.7-94.5,202.9-94.5
			c94.5,0,286.3,86.2,286.3,127.9c0,8.3-77.8,8.3-175.1,0c-155.6-16.7-180.7-13.9-225.1,36.1l-52.8,58.4h227.9
			c258.5,0,277.9,16.7,225.1,180.7C6025.4,535.1,5897.5,624,5764.1,624C5694.6,624,5644.6,599,5575.1,529.5z"/>
		<path class="st0" d="M7434.5,585.1c-102.8-47.2-175.1-169.5-175.1-297.4S7415,12.6,7551.2,12.6c102.8,0,205.7,38.9,241.8,94.5
			c47.2,69.5,13.9,75-166.8,33.4c-130.6-30.6-227.9,38.9-227.9,161.2c0,144.5,75,191.8,261.3,169.5c169.5-22.2,202.9,8.3,91.7,83.4
			C7654.1,615.7,7534.5,629.6,7434.5,585.1z"/>
		<path class="st0" d="M4758,371.1c0-180.7,5.6-202.9,80.6-277.9c66.7-66.7,105.6-80.6,208.5-80.6c114,0,127.9,5.6,127.9,63.9
			c0,50-16.7,61.1-94.5,63.9c-136.2,2.8-183.4,52.8-183.4,194.6v122.3h139c27.5-0.6,51,0,69.4,1c62.6,3.2,74.4,10.2,79.2,19.2
			c2.4,4.5,1,5.6,0.8,34.2c-0.2,35.1,1.9,37.1-0.8,42.5c-9.8,19.2-48.6,17.1-89.2,15.8c-43-1.4-86-1.5-128.9-1.5
			c-69.5,0-139,0-208.5,0V371.1z"/>
	</g>
	<path class="st0" d="M475.5,182.8h13.2V226h30.4v9.6c-14.6,0-29.2-0.1-43.7-0.1C475.4,217.9,475.5,200.4,475.5,182.8z"/>
</g>
</svg>
