<?xml version="1.0" encoding="utf-8"?>
<!-- Generator: Adobe Illustrator 19.2.1, SVG Export Plug-In . SVG Version: 6.00 Build 0)  -->
<svg version="1.1" xmlns="http://www.w3.org/2000/svg" xmlns:xlink="http://www.w3.org/1999/xlink" x="0px" y="0px"
	 viewBox="0 0 1000 500" style="enable-background:new 0 0 1000 500;" xml:space="preserve">
<style type="text/css">
	.st0{fill:#FFFFFF;}
</style>
<g id="Capa_1">
	<path class="st0" d="M86.7,152.8c-0.8,0.8-1.4,29.4-1.4,63.1v61.5l-5,6.6c-3.8,5.5-6.7,6.9-14.7,6.9c-12.3,0-19.6-7.7-21.4-22.5
		c-1-8.5-0.2-11.3,4.2-16.7c6.9-9.1,17.1-11.5,25.8-6.3l7.1,4.1v-10.7c0-9.6-0.6-11-6.5-13.5c-4.6-2.2-9.7-2.2-16.9-0.3
		c-13.1,3.3-16.3,5.8-24,17.8c-14.5,22.8-4,57.6,20.2,67.3c17.8,6.9,36.5-2.7,43.4-22c3.2-8.2,3.6-18.1,3.6-73.6v-63.7h-6.5
		C90.9,150.9,87.3,151.7,86.7,152.8z"/>
	<path class="st0" d="M107.1,214.6c0,73-0.6,76.9-15.5,91.1c-16.5,15.9-46,12.6-60.1-6.9c-23.8-32.9-0.6-82.1,37.3-78.8l12.5,1.1
		v-10.4c0-9.3-0.6-10.4-5.4-11c-15.3-1.1-27.2,1.1-36.7,6.9C16.9,220.6,8,237.9,8,268.4c0,15.9,0.8,20.6,5.7,31.6
		c13.7,29.6,44.6,41.7,75.7,29.4c9.1-3.6,24-21.7,28.4-34.3c3-8.2,3.4-19.5,3.4-76.3v-66.4l-7.1-0.8l-6.9-0.8V214.6z"/>
	<path class="st0" d="M147.8,152.8c-11.1,3.8-16.1,20.6-9.9,32.9c9.3,18.4,34.7,10.2,34.7-11.3c-0.2-10.4-3.6-17-10.7-20.9
		C156.3,150.9,154.3,150.6,147.8,152.8z M160.9,167.1c4.6,5.2,4.8,5.2,1,11c-6.3,9.6-17.1,6-17.1-5.8c0-4.7,5-10.2,9.1-10.4
		C155.3,161.9,158.3,164.4,160.9,167.1z"/>
	<path class="st0" d="M267.7,152.8c-0.2,1.4,0,29.1,0,61.8l0.2,59.6l-5.9,9.1c-5.2,8.2-6.9,9.1-16.3,8.8c-8.9,0-11.1-1.4-16.1-8.8
		c-15.5-24.2,5.6-51.9,28.7-37.9c2.8,1.9,3.4,0.8,3.4-7.4c0-11.5-3.2-13.7-18.4-13.2c-11.9,0.3-21.4,6.3-29.1,18.4
		c-4.8,7.7-5.9,12.1-5.9,22.8c0,42,42.6,62.9,65.4,31.6l6.9-9.3l0.6-68.6l0.6-68.6h-7.1C270.9,150.9,267.7,151.7,267.7,152.8z"/>
	<path class="st0" d="M288.5,154.2c-0.4,1.9-1.2,32.7-1.4,68.1c-0.6,73.8-0.6,73.3-18.4,86.7c-19.4,14.8-49,7.1-59.9-15.6
		c-17.2-36,5.2-76.3,40.8-73.3l12.1,0.8v-8.8c0-11.3-1.8-12.6-16.7-12.4c-21.4,0-42.4,15.1-51.7,37.3c-6.7,16.2-7.9,28.8-4,46.9
		c8.3,39.5,43.6,60.4,77.9,45.6c15.7-6.6,25-17,31.1-34.3c5-14.3,5-14.5,4.6-78.5l-0.6-64.5l-6.5-0.8
		C291.9,150.9,289.1,152,288.5,154.2z"/>
	<path class="st0" d="M446.2,220.1c0.2,67,0.2,70,4.8,81.8c7.9,22,25.8,32.9,53.1,32.9h15.5v-9.3v-9.3l-17.2-1.1
		c-19.8-1.4-27-6-34.5-21.1c-4.6-9.3-4.8-11-5.2-75.5l-0.6-66.2l-7.9-0.8l-7.9-0.8V220.1z"/>
	<path class="st0" d="M468.8,154.5c-0.4,1.9-0.6,18.4-0.4,36.5l0.6,32.7l25.4,0.8l25.2,0.8v-9.6v-9.6l-16.3-0.8l-16.5-0.8l-0.6-26.9
		l-0.6-26.6h-7.9C473.1,150.9,469.4,152.3,468.8,154.5z"/>
	<path class="st0" d="M357.5,202c-35.9,12.9-52.3,60.1-34.1,98c6.9,14.8,18.8,26.1,32.3,31c14.1,5.2,24.4,4.7,39.9-1.9
		c10.5-4.4,15.5-8.5,24-20c5.9-8,10.7-15.9,10.7-17.6c0-6.6-13.7-3.8-19.2,3.8c-18.4,25.5-57.1,25.3-71.8-0.5
		c-18-31.8,1.2-75.8,33.5-76.3c24.4-0.5,43.6,20.6,43.6,47.8v11h7.9h7.9v-12.6C432.3,222,393.2,189.3,357.5,202z"/>
	<path class="st0" d="M579,200.6c-34.3,8-54.9,53.5-41.4,92c17.8,51.3,80.1,56.3,105.3,8.2l5.9-11.3l-7.3-0.8
		c-5.7-0.8-8.7,0.5-12.7,5.8c-19,25-49,27.5-67.4,5.8c-19-22.8-14.9-58.7,8.9-74.9c26.8-18.7,62.5,3.8,63,39.5l0.2,12.4h8.7h8.7
		l-1.2-13.5c-2.2-25-11.7-43.1-29.1-55.5C611.1,201.7,590.5,197.8,579,200.6z"/>
	<path class="st0" d="M133.7,203.9c-0.4,1.9-0.6,31.3-0.4,65.1l0.6,61.8l8.5,0.8l8.3,0.8v-65.9v-66.2h-7.9
		C138.1,200.3,134.3,201.7,133.7,203.9z"/>
	<path class="st0" d="M157.5,203.9c-0.4,1.9-0.6,31.3-0.4,65.1l0.6,61.8l8.5,0.8l8.3,0.8v-65.9v-66.2h-7.9
		C161.9,200.3,158.1,201.7,157.5,203.9z"/>
	<path class="st0" d="M642.4,201.4c0,0.8,7.5,15.1,16.9,32.1c9.3,16.7,16.9,31.3,16.9,32.4c0,0.8-7.7,15.1-16.9,31.6
		c-9.3,16.5-16.9,31-16.9,32.4c0,1.1,4,2.2,8.7,2.2h8.7l17.1-33.2l17.2-33.2l-13.1-26.4c-19.2-39.3-19-39-29.5-39
		C646.6,200.3,642.4,200.9,642.4,201.4z"/>
	<path class="st0" d="M670.2,203.1c0,2.7,16.1,35.4,25.4,51.6l3.6,6.6l7.9-14.8c13.3-24.4,17.8-33.5,20.4-40.1c2.2-5.8,2-6-4.6-6
		c-6.3,0-7.7,1.6-15.1,16.5c-4.4,9.1-8.3,16.5-8.7,16.5c-0.4,0-4.2-7.4-8.3-16.5c-6.9-14.5-8.5-16.5-14.1-16.5
		C673.2,200.3,670.2,201.7,670.2,203.1z"/>
	<path class="st0" d="M727.5,217.6c-5.2,9.3-12.5,24.2-16.7,32.7l-7.3,15.6l16.7,32.4l16.7,32.4l9.3,0.8c5.2,0.5,9.3-0.3,9.3-1.4
		c0-1.1-7.5-15.6-16.9-32.1c-9.3-16.2-16.9-31-16.9-32.4c0-1.4,5.6-12.9,12.5-25c6.7-12.4,14.5-26.6,16.9-31.6l4.6-8.8h-9.5
		C736.8,200.3,736.4,200.9,727.5,217.6z"/>
	<path class="st0" d="M780.6,206.9c-15.9,9.3-24.4,18.9-30.1,34.6c-6.5,18.1-6.5,33.2,0.6,52.4c16.3,44.5,67,54.6,96.4,18.9
		c4-4.9,8.7-12.6,10.3-16.7l3-8H853c-5.7,0-8.9,1.9-12.5,7.1c-15.9,24.2-49.2,27.2-66.4,6c-18.8-22.8-16.9-51.1,5-72.2
		c7.7-7.7,9.7-8.2,24.6-8.2c17.8,0,29.1,6,36.7,19.2c3.2,5.2,5.7,6.9,12.1,6.9h8.3l-3-8c-7.9-20.9-28.4-36.2-50.8-37.9
		C794.5,200.3,790.4,201.1,780.6,206.9z"/>
	<path class="st0" d="M910.7,204.2c-24,10.7-38.3,34.6-38.3,64c0,57.9,60.7,87.6,97.9,48c37.9-40.1,15.1-111.7-36.5-115
		C925,200.6,915.7,202,910.7,204.2z M949.4,223.9c14.3,8.2,24.2,26.1,24.2,43.6c0,37.1-38.7,60.1-67,40.1
		c-15.1-10.7-22.8-32.4-18.4-52.4c2.6-12.1,13.7-26.6,24.2-31.8C921.8,218.4,940.6,218.7,949.4,223.9z"/>
	<path class="st0" d="M916.3,226.4c-21.4,9.3-30.3,40.6-18.2,64.2c9.7,18.9,34.7,25.3,51.7,13.2c26.6-18.4,22.6-65.3-6.7-77.4
		C931.3,221.5,927.8,221.5,916.3,226.4z M943.2,248.6c15.9,14.3,6.9,42-13.5,43.1c-7.1,0.5-9.7-0.8-14.1-6.9
		c-6.9-9.9-8.3-17-5.2-26.1C915.9,243.1,931.7,238.2,943.2,248.6z"/>
	<path class="st0" d="M364.9,223.9c-20.8,10.4-26.8,20-26.8,42.8c0,13.5,0.8,16.7,5.9,24.4c7.9,11.5,19.8,18.9,30.7,18.9
		c9.7,0,26.8-9.6,31.7-17.6c2.6-4.7,2.2-4.9-8.9-3.3c-6.5,0.8-15.9,2.2-20.8,3c-7.3,1.6-9.9,0.8-14.5-4.1c-3-3.3-5.4-7.1-5.4-8.5
		c0-1.4,11.7-2.5,26.8-2.5h26.8v-8c0-16.5-7.1-32.4-18-40.1C386.7,224.7,369.4,221.7,364.9,223.9z M385.7,250c4.6,6,2,10.2-5.6,9.1
		c-2.4-0.3-8.5-0.8-13.7-0.8c-7.7-0.3-9.1-1.1-8.1-4.7c1.6-6,12.5-12.4,18.4-10.4C379.5,244,383.5,247,385.7,250z"/>
	<path class="st0" d="M576,226.1c-9.9,5.2-18,17.3-20.8,31.8c-5.6,28.5,16.5,55.5,42,51.3c10.3-1.9,24.6-11.3,26.4-17.8
		c0.8-3-1-3.6-9.3-2.5c-5.7,0.8-13.5,2.5-16.9,3.3c-8.3,2.5-14.5,0.3-20.4-7.4l-5-6.3l27.8-1.4l27.8-1.4l-0.2-10.2
		c-0.4-14-9.1-31.8-18-36.8C598.8,222.5,585.1,221.7,576,226.1z M596.3,244.5c5.6,2.7,8.5,7.1,8.5,12.4c0,2.7-27.4,2.2-29.5-0.5
		c-1.4-1.6,4.4-9.9,8.7-12.1C589.3,240.9,589.9,240.9,596.3,244.5z"/>
	<path class="st0" d="M785.2,231.1c-11.3,8-17.8,21.4-17.8,36.5c0,39.5,44.6,58.2,65.6,27.2l4.4-6.6h-10.1c-5.6,0-12.5,1.4-15.5,2.7
		c-11.3,6-28.6-7.1-28.6-22c0-16.5,15.3-30.7,26.6-24.7c3,1.4,10.3,2.7,16.5,2.7c10.9,0,11.1,0,7.5-5.5
		C823.1,225,800.7,220.4,785.2,231.1z"/>
	<path class="st0" d="M468,254.4c0,40.6,8.3,53.3,37.3,55.2l14.3,1.1v-9.6v-9.6l-12.7-1.1c-17.4-1.4-21-6-21-27.5V247h16.9h16.9
		v-8.2v-8.2h-25.8H468V254.4z"/>
	<path class="st0" d="M683.5,300.5c-8.3,15.6-15.3,29.4-15.3,30.2c0,0.8,3.2,1.4,6.9,1.4c5.9,0,7.7-1.6,14.3-15.1
		c4.2-8.2,8.5-14.8,9.5-14.8c1.2,0,5.2,6.3,8.9,14.3c6.1,12.4,7.9,14.3,14.5,15.1c4,0.5,7.3,0,7.3-0.8c0-1.9-29.5-59-30.5-59
		C699,271.7,691.8,284.6,683.5,300.5z"/>
</g>
<g id="Capa_2">
</g>
</svg>
