<?xml version="1.0" encoding="utf-8"?>
<!-- Generator: Adobe Illustrator 16.0.3, SVG Export Plug-In . SVG Version: 6.00 Build 0)  -->
<!DOCTYPE svg PUBLIC "-//W3C//DTD SVG 1.1//EN" "http://www.w3.org/Graphics/SVG/1.1/DTD/svg11.dtd">
<svg version="1.1" xmlns="http://www.w3.org/2000/svg" xmlns:xlink="http://www.w3.org/1999/xlink" x="0px" y="0px" width="500px"
	 height="500px" viewBox="0 0 500 500" enable-background="new 0 0 500 500" xml:space="preserve">
<g id="Capa_1">
	<g>
		<g>
			<path fill="#2F4569" d="M362.686,185.043c-1.287-0.755-2.877-0.775-4.182-0.05l-11.597,6.445l-3.218-112.459
				c-0.063-2.282-1.931-4.099-4.213-4.097h-29.504c-2.282-0.002-4.149,1.815-4.214,4.097l-3.929,137.514l-12.93,7.164v-34.98
				c0-2.327-1.89-4.213-4.218-4.212c-0.714,0-1.415,0.182-2.042,0.529l-69.603,38.664v-34.98c-0.002-2.327-1.89-4.213-4.217-4.212
				c-0.714,0-1.417,0.182-2.042,0.529l-75.863,42.146c-1.338,0.742-2.17,2.152-2.17,3.684v92.721c0,2.326,1.887,4.214,4.214,4.214
				h227.589c2.327,0,4.214-1.888,4.214-4.214V188.676C364.763,187.182,363.973,185.8,362.686,185.043z M314.069,83.312h21.31
				l0.244,8.43h-21.794L314.069,83.312z M313.586,100.17h22.275l2.742,95.877l-28.209,15.665L313.586,100.17z M242.54,319.329
				h-25.288v-21.074h25.288V319.329z M276.256,319.329h-25.287v-21.074h25.287V319.329z M356.334,319.329h-71.649v-25.288
				c0-2.326-1.886-4.215-4.214-4.215h-67.433c-2.327,0-4.215,1.889-4.215,4.215v25.288h-71.648v-86.024l67.433-37.464v34.983
				c0.001,2.326,1.89,4.213,4.217,4.213c0.714,0,1.417-0.183,2.042-0.531l69.604-38.665v34.983c0.002,2.326,1.889,4.213,4.218,4.213
				c0.713,0,1.417-0.183,2.041-0.531l39.749-22.08l18.476-10.263l11.38-6.322V319.329z"/>
		</g>
	</g>
	<g>
		<g>
			<path fill="#2F4569" d="M187.75,243.467h-33.717c-2.327,0-4.214,1.886-4.214,4.213v16.859c0,2.327,1.887,4.216,4.214,4.216
				h33.717c2.328,0,4.214-1.889,4.214-4.216V247.68C191.964,245.354,190.078,243.467,187.75,243.467z M183.535,260.324h-25.287
				v-8.429h25.287V260.324z"/>
		</g>
	</g>
	<g>
		<g>
			<path fill="#2F4569" d="M263.612,243.467h-33.716c-2.328,0-4.215,1.886-4.215,4.213v16.859c0,2.327,1.887,4.216,4.215,4.216
				h33.716c2.328,0,4.215-1.889,4.215-4.216V247.68C267.827,245.354,265.94,243.467,263.612,243.467z M259.397,260.324h-25.287
				v-8.429h25.287V260.324z"/>
		</g>
	</g>
	<g>
		<g>
			<path fill="#2F4569" d="M339.477,243.467h-33.718c-2.328,0-4.215,1.886-4.215,4.213v16.859c0,2.327,1.887,4.216,4.215,4.216
				h33.718c2.327,0,4.213-1.889,4.213-4.216V247.68C343.689,245.354,341.804,243.467,339.477,243.467z M335.261,260.324h-25.288
				v-8.429h25.288V260.324z"/>
		</g>
	</g>
</g>
<g id="Capa_2">
	<line fill="none" stroke="#9ECE5E" stroke-width="6" stroke-miterlimit="10" x1="16.034" y1="16.357" x2="16.034" y2="107.882"/>
	<line fill="none" stroke="#9ECE5E" stroke-width="6" stroke-miterlimit="10" x1="13.034" y1="16.357" x2="115" y2="16.357"/>
	<text transform="matrix(1 0 0 1 129 400)" fill="#2F4569" font-family="'Bebas'" font-size="54">industria</text>
	<line fill="none" stroke="#9ECE5E" stroke-width="6" stroke-miterlimit="10" x1="485.147" y1="15.879" x2="393.623" y2="15.748"/>
	<line fill="none" stroke="#9ECE5E" stroke-width="6" stroke-miterlimit="10" x1="485.151" y1="12.878" x2="485.007" y2="114.845"/>
	<line fill="none" stroke="#9ECE5E" stroke-width="6" stroke-miterlimit="10" x1="16.275" y1="480.121" x2="107.799" y2="480.084"/>
	<line fill="none" stroke="#9ECE5E" stroke-width="6" stroke-miterlimit="10" x1="16.276" y1="483.121" x2="16.234" y2="381.155"/>
	
		<line fill="none" stroke="#9ECE5E" stroke-width="6" stroke-miterlimit="10" x1="485.071" y1="481.147" x2="485.332" y2="389.622"/>
	
		<line fill="none" stroke="#9ECE5E" stroke-width="6" stroke-miterlimit="10" x1="488.071" y1="481.155" x2="386.104" y2="480.864"/>
</g>
</svg>
