<?xml version="1.0" encoding="utf-8"?>
<!-- Generator: Adobe Illustrator 16.0.3, SVG Export Plug-In . SVG Version: 6.00 Build 0)  -->
<!DOCTYPE svg PUBLIC "-//W3C//DTD SVG 1.1//EN" "http://www.w3.org/Graphics/SVG/1.1/DTD/svg11.dtd">
<svg version="1.1" xmlns="http://www.w3.org/2000/svg" xmlns:xlink="http://www.w3.org/1999/xlink" x="0px" y="0px" width="500px"
	 height="500px" viewBox="0 0 500 500" enable-background="new 0 0 500 500" xml:space="preserve">
<g id="Capa_1">
	<g>
		<path fill="#2F4569" d="M338.961,134.952h-21.115v-24.461c0-2.289-1.856-4.144-4.146-4.144c-2.288,0-4.144,1.855-4.144,4.144
			v24.461h-11.378v-10.596c0-2.289-1.855-4.144-4.144-4.144c-2.289,0-4.145,1.855-4.145,4.144v10.596H173.925v-14.627
			c0-2.289-1.856-4.144-4.144-4.144c-2.289,0-4.145,1.855-4.145,4.144v14.628h-17.54c-15.467-0.001-28.049,12.582-28.049,28.048
			v37.112c0,15.466,12.583,28.049,28.049,28.049h11.771v16.416c0,1.525,1.237,2.763,2.762,2.763h4.389v10.647
			c0,1.525,1.237,2.762,2.763,2.762c1.525,0,2.762-1.236,2.762-2.762V247.34h4.389c1.525,0,2.762-1.237,2.762-2.763v-16.416h23.757
			c1.492,0,2.869-0.802,3.605-2.101l8.941-15.777h44.394v63.226H124.19c-2.289,0-4.144,1.855-4.144,4.145v39.331
			c0,2.289,1.855,4.145,4.144,4.145h238.676c2.289,0,4.144-1.855,4.144-4.145V163.001
			C367.01,147.535,354.427,134.952,338.961,134.952L338.961,134.952z M163.604,195.495h12.354v5.202h-12.354V195.495z
			 M175.957,189.969h-12.354v-33.807h12.354V189.969z M175.957,150.637h-12.354v-7.397h12.354V150.637z M174.169,241.816h-8.778
			v-13.654h8.777L174.169,241.816L174.169,241.816z M264.536,281.798c2.289,0,4.145-1.856,4.145-4.144v-71.514
			c0-2.289-1.855-4.145-4.145-4.145h-50.953c-1.493,0-2.869,0.804-3.605,2.102l-8.941,15.778h-52.94
			c-10.897,0-19.762-8.865-19.762-19.762v-37.112c0-10.897,8.865-19.761,19.762-19.761h9.982v60.218
			c0,1.526,1.237,2.762,2.762,2.762h17.878c1.526,0,2.763-1.236,2.763-2.762V143.24h157.479c10.896,0,19.762,8.864,19.762,19.761
			v123.51H128.335v-4.715L264.536,281.798L264.536,281.798z M128.335,312.844v-20.808h230.389v20.808H128.335L128.335,312.844z"/>
		<path fill="#2F4569" d="M273.693,205.609v18.708c0,22.061,17.947,40.01,40.007,40.01c22.062,0,40.01-17.949,40.01-40.01v-61.316
			c0-8.132-6.616-14.748-14.749-14.748h-77.853c-13.435,0-24.365,10.93-24.365,24.365c0,13.435,10.93,24.364,24.365,24.364h3.959
			C269.822,196.983,273.693,200.853,273.693,205.609L273.693,205.609z M261.108,191.458c-10.389,0-18.839-8.451-18.839-18.84
			c0-10.388,8.45-18.84,18.839-18.84h77.854c5.085,0,9.223,4.138,9.223,9.223v61.315c0,19.015-15.47,34.483-34.484,34.483
			s-34.482-15.469-34.482-34.483V205.61c0-7.803-6.348-14.151-14.151-14.151H261.108L261.108,191.458z"/>
		<path fill="#2F4569" d="M313.7,248.225c5.744,0,11.488-2.187,15.86-6.559c8.745-8.746,8.745-22.974,0-31.719
			c-8.746-8.746-22.974-8.745-31.719,0c-8.745,8.745-8.745,22.974,0,31.719C302.215,246.038,307.957,248.225,313.7,248.225z
			 M301.748,213.854c3.295-3.295,7.625-4.942,11.952-4.942c4.328,0,8.657,1.647,11.952,4.942c6.592,6.59,6.592,17.315,0,23.905
			c-6.59,6.591-17.313,6.591-23.904,0C295.157,231.168,295.157,220.443,301.748,213.854z"/>
		<path fill="#2F4569" d="M262.748,159.576c-6.945,0-12.596,5.651-12.596,12.596c0,6.944,5.65,12.595,12.596,12.595
			s12.595-5.651,12.595-12.595C275.343,165.227,269.693,159.576,262.748,159.576z M262.748,179.241
			c-3.899,0-7.072-3.172-7.072-7.069c0-3.899,3.173-7.071,7.072-7.071c3.898,0,7.07,3.171,7.07,7.071
			C269.818,176.069,266.646,179.241,262.748,179.241z"/>
		<path fill="#2F4569" d="M215.37,154.213H194.81c-1.525,0-2.763,1.237-2.763,2.763v28.604c0,1.526,1.237,2.763,2.763,2.763h20.561
			c1.525,0,2.762-1.237,2.762-2.763v-28.604C218.132,155.45,216.896,154.213,215.37,154.213z M212.607,182.818h-15.035v-23.08
			h15.035V182.818z"/>
		<path fill="#2F4569" d="M305.837,222.087c1.095,0,2.161-0.442,2.935-1.21c0.769-0.774,1.21-1.84,1.21-2.935
			c0-1.087-0.441-2.155-1.21-2.928c-0.773-0.774-1.84-1.215-2.935-1.215c-1.088,0-2.154,0.441-2.928,1.215
			c-0.774,0.773-1.215,1.84-1.215,2.928c0,1.094,0.44,2.161,1.215,2.935C303.683,221.645,304.749,222.087,305.837,222.087z"/>
		<path fill="#2F4569" d="M300.026,169.547h27.349c1.525,0,2.763-1.236,2.763-2.762c0-1.526-1.237-2.763-2.763-2.763h-27.349
			c-1.524,0-2.763,1.236-2.763,2.763C297.264,168.311,298.502,169.547,300.026,169.547z"/>
		<path fill="#2F4569" d="M300.026,180.32h27.349c1.525,0,2.763-1.236,2.763-2.762s-1.237-2.763-2.763-2.763h-27.349
			c-1.524,0-2.763,1.237-2.763,2.763S298.502,180.32,300.026,180.32z"/>
	</g>
</g>
<g id="Capa_2">
	<line fill="none" stroke="#9ECE5E" stroke-width="6" stroke-miterlimit="10" x1="16.034" y1="16.357" x2="16.034" y2="107.882"/>
	<line fill="none" stroke="#9ECE5E" stroke-width="6" stroke-miterlimit="10" x1="13.034" y1="16.357" x2="115" y2="16.357"/>
	<text transform="matrix(1 0 0 1 173.1919 397)" fill="#2F4569" font-family="'Bebas'" font-size="54">textil</text>
	<line fill="none" stroke="#9ECE5E" stroke-width="6" stroke-miterlimit="10" x1="485.147" y1="15.879" x2="393.623" y2="15.748"/>
	<line fill="none" stroke="#9ECE5E" stroke-width="6" stroke-miterlimit="10" x1="485.151" y1="12.878" x2="485.007" y2="114.845"/>
	<line fill="none" stroke="#9ECE5E" stroke-width="6" stroke-miterlimit="10" x1="16.275" y1="480.121" x2="107.799" y2="480.084"/>
	<line fill="none" stroke="#9ECE5E" stroke-width="6" stroke-miterlimit="10" x1="16.276" y1="483.121" x2="16.234" y2="381.155"/>
	
		<line fill="none" stroke="#9ECE5E" stroke-width="6" stroke-miterlimit="10" x1="485.071" y1="481.147" x2="485.332" y2="389.622"/>
	
		<line fill="none" stroke="#9ECE5E" stroke-width="6" stroke-miterlimit="10" x1="488.071" y1="481.155" x2="386.104" y2="480.864"/>
</g>
</svg>
