<?xml version="1.0" encoding="utf-8"?>
<!-- Generator: Adobe Illustrator 16.0.3, SVG Export Plug-In . SVG Version: 6.00 Build 0)  -->
<!DOCTYPE svg PUBLIC "-//W3C//DTD SVG 1.1//EN" "http://www.w3.org/Graphics/SVG/1.1/DTD/svg11.dtd">
<svg version="1.1" xmlns="http://www.w3.org/2000/svg" xmlns:xlink="http://www.w3.org/1999/xlink" x="0px" y="0px" width="500px"
	 height="500px" viewBox="0 0 500 500" enable-background="new 0 0 500 500" xml:space="preserve">
<g id="Capa_1">
	<g>
		<g>
			<path fill="#2F4569" d="M343.987,301.729l-35.437-61.371c13.857-15.045,22.173-35.04,22.173-57.014
				c0-23.36-9.503-44.345-24.747-59.588c-15.242-15.244-36.229-24.747-59.588-24.747c-23.361,0-44.346,9.503-59.589,24.747
				c-15.243,15.244-24.746,36.228-24.746,59.588c0,21.975,8.315,41.969,22.173,57.014l-35.437,61.371
				c-0.594,0.99-0.792,2.375-0.396,3.762c0.792,2.177,3.167,3.167,5.345,2.375l28.31-11.282l4.355,30.287
				c0.198,1.188,0.792,2.377,1.98,2.97c1.979,1.189,4.554,0.396,5.741-1.582l35.832-61.965c5.147,0.989,10.691,1.584,16.036,1.584
				c5.542,0,10.888-0.595,16.037-1.584l35.831,61.965c1.187,1.979,3.762,2.573,5.74,1.582c1.188-0.593,1.782-1.781,1.979-2.97
				l4.356-30.287l28.311,11.282c2.177,0.792,4.553-0.198,5.344-2.375C344.779,304.104,344.581,302.72,343.987,301.729z
				 M193.333,313.609l-3.563-23.56c-0.396-2.178-2.376-3.762-4.751-3.564c-0.396,0-0.792,0.197-1.188,0.396l-21.975,8.711
				l28.507-49.294c8.91,7.919,19.599,14.057,31.478,17.62L193.333,313.609z M246.389,259.365c-20.985,0-39.99-8.513-53.65-22.172
				c-13.66-13.661-22.172-32.665-22.172-53.65c0-20.984,8.512-39.989,22.172-53.649c13.66-14.056,32.665-22.568,53.65-22.568
				c20.983,0,39.988,8.513,53.65,22.172c13.658,13.661,22.172,32.665,22.172,53.65c0,20.985-8.514,39.99-22.172,53.65
				C286.377,250.853,267.372,259.365,246.389,259.365z M308.947,286.882c-0.396-0.199-0.792-0.396-1.188-0.396
				c-2.179-0.396-4.355,1.189-4.752,3.564l-3.563,23.56l-28.507-49.691c11.877-3.563,22.567-9.7,31.477-17.62l28.508,49.294
				L308.947,286.882z"/>
		</g>
	</g>
	<g>
		<g>
			<path fill="#2F4569" d="M285.189,168.695c-0.988-1.386-2.177-2.375-3.563-2.969c-1.385-0.594-2.968-0.991-4.552-0.792h-16.432
				l-5.147-16.234c-0.791-2.376-2.573-4.356-4.554-5.543c-1.385-0.594-2.771-0.99-4.355-0.99c-1.584,0-2.97,0.396-4.355,0.99
				c-2.177,1.187-3.762,2.969-4.553,5.543l-5.147,16.234H216.1c-1.584-0.199-3.168,0.198-4.554,0.792
				c-1.386,0.593-2.573,1.583-3.563,2.969c-1.584,2.178-1.979,4.553-1.584,6.929c0.396,2.376,1.584,4.553,3.761,6.137l13.858,9.898
				l-5.346,16.234c0,0.198,0,0.396-0.198,0.396c-0.396,1.188-0.396,2.573-0.198,3.96c0.198,1.385,0.792,2.771,1.781,3.958
				c1.584,2.179,3.762,3.367,6.137,3.762c2.376,0.396,4.95-0.198,6.929-1.781l13.859-10.097l13.857,10.097
				c2.178,1.583,4.553,1.979,6.929,1.781c2.377-0.396,4.554-1.583,6.138-3.762c0.989-1.187,1.387-2.573,1.782-3.958
				c0.198-1.387,0.198-2.574-0.198-3.96c0-0.198,0-0.396-0.197-0.396l-5.347-16.234l13.858-9.898
				c2.178-1.584,3.365-3.761,3.762-6.137C287.368,173.447,286.773,170.873,285.189,168.695z M278.261,175.03l-0.197,0.198
				l-16.034,11.681c-1.387,0.989-2.178,2.97-1.585,4.553l6.137,18.808v0.198c0,0.198,0,0.395,0,0.593c0,0.199,0,0.396-0.197,0.396
				c-0.198,0.198-0.396,0.396-0.792,0.396c-0.199,0-0.594,0-0.793-0.198l-16.232-11.878c-0.792-0.593-1.583-0.792-2.574-0.792
				c-0.793,0-1.782,0.198-2.574,0.792l-16.233,11.878c-0.198,0.198-0.593,0.198-0.792,0.198c-0.198,0-0.593-0.198-0.792-0.396
				c-0.198-0.198-0.198-0.396-0.198-0.396c0-0.198,0-0.395,0-0.593v-0.198l6.137-18.808c0.594-1.781,0-3.563-1.584-4.553
				l-15.243-11.681l-0.198-0.198c-0.198-0.198-0.396-0.396-0.396-0.593c0-0.199,0-0.595,0.198-0.793c0,0,0-0.197,0.198-0.197
				c0.198-0.199,0.198-0.199,0.396-0.199c0.198,0,0.396-0.198,0.594-0.198c0.198,0,0.396,0,0.594,0h19.4
				c1.782,0,3.366-1.188,3.959-2.97l6.137-19.004c0-0.198,0.198-0.594,0.594-0.594c0.199,0,0.396-0.198,0.396-0.198
				c0.198,0,0.396,0,0.396,0.198c0.198,0.198,0.396,0.396,0.593,0.594l6.137,19.004c0.595,1.583,2.178,2.97,3.958,2.97h19.403
				c0.198,0,0.396,0,0.594,0c0.197,0,0.396,0,0.593,0.198c0.198,0,0.198,0.199,0.397,0.199c0,0,0,0.197,0.197,0.197
				c0.197,0.198,0.197,0.396,0.197,0.793C278.658,174.634,278.459,174.832,278.261,175.03z"/>
		</g>
	</g>
	<g>
		<g>
			<path fill="#2F4569" d="M292.911,136.822c-11.877-11.878-28.311-19.203-46.522-19.203c-18.213,0-34.645,7.325-46.523,19.203
				c-11.878,11.878-19.204,28.31-19.204,46.522c0,18.212,7.325,34.644,19.204,46.523c11.878,11.877,28.31,19.203,46.523,19.203
				c18.212,0,34.646-7.325,46.522-19.203c11.878-11.879,19.203-28.311,19.203-46.523C312.114,165.132,304.789,148.7,292.911,136.822
				z M287.17,223.928c-10.493,10.493-24.944,16.828-40.781,16.828c-15.838,0-30.289-6.533-40.584-16.828
				c-10.492-10.492-16.827-24.745-16.827-40.583c0-15.837,6.533-30.29,16.827-40.584c10.295-10.492,24.747-17.024,40.584-17.024
				c15.837,0,30.288,6.532,40.582,16.827c10.493,10.492,16.829,24.746,16.829,40.583C303.8,198.984,297.464,213.634,287.17,223.928z
				"/>
		</g>
	</g>
</g>
<g id="Capa_2">
	<line fill="none" stroke="#9ECE5E" stroke-width="6" stroke-miterlimit="10" x1="16.034" y1="16.357" x2="16.034" y2="107.882"/>
	<line fill="none" stroke="#9ECE5E" stroke-width="6" stroke-miterlimit="10" x1="13.034" y1="16.357" x2="115" y2="16.357"/>
	<text transform="matrix(1 0 0 1 157.1919 399)" fill="#2F4569" font-family="'Bebas'" font-size="54">calidad</text>
	<line fill="none" stroke="#9ECE5E" stroke-width="6" stroke-miterlimit="10" x1="485.147" y1="15.879" x2="393.623" y2="15.748"/>
	<line fill="none" stroke="#9ECE5E" stroke-width="6" stroke-miterlimit="10" x1="485.151" y1="12.878" x2="485.007" y2="114.845"/>
	<line fill="none" stroke="#9ECE5E" stroke-width="6" stroke-miterlimit="10" x1="16.275" y1="480.121" x2="107.799" y2="480.084"/>
	<line fill="none" stroke="#9ECE5E" stroke-width="6" stroke-miterlimit="10" x1="16.276" y1="483.121" x2="16.234" y2="381.155"/>
	
		<line fill="none" stroke="#9ECE5E" stroke-width="6" stroke-miterlimit="10" x1="485.071" y1="481.147" x2="485.332" y2="389.622"/>
	
		<line fill="none" stroke="#9ECE5E" stroke-width="6" stroke-miterlimit="10" x1="488.071" y1="481.155" x2="386.104" y2="480.864"/>
</g>
</svg>
