<?xml version="1.0" encoding="utf-8"?>
<!-- Generator: Adobe Illustrator 19.2.1, SVG Export Plug-In . SVG Version: 6.00 Build 0)  -->
<svg version="1.1" id="Capa_1" xmlns="http://www.w3.org/2000/svg" xmlns:xlink="http://www.w3.org/1999/xlink" x="0px" y="0px"
	 viewBox="0 0 1000 500" style="enable-background:new 0 0 1000 500;" xml:space="preserve">
<style type="text/css">
	.st0{fill:#FFFFFF;}
</style>
<g transform="translate(0.000000,200.000000) scale(0.100000,-0.100000)">
	<path class="st0" d="M4974.2,1378.1c-2.6-183.7-58.7-385.3-132.7-479.7c-76.6-97-178.6-142.9-403.2-181.2
		c-173.5-28.1-181.2-33.2-76.6-35.7c296-7.7,505.2-142.9,571.6-370c61.2-199,53.6-219.4-63.8-219.4h-102.1V-966.9v-1058.9h229.7
		h229.7v1058.9V92.1h-117.4H4992l17.9,109.7c43.4,290.9,209.2,444,505.2,472.1l158.2,15.3l-186.3,30.6
		c-329.2,56.1-444,201.6-487.4,599.6C4979.3,1531.2,4979.3,1531.2,4974.2,1378.1z"/>
	<path class="st0" d="M8033.6,257.9V-86.6l-84.2,91.9c-102.1,112.3-265.4,142.9-393,79.1c-132.7-71.4-137.8-104.6-130.1-1112.5
		l7.7-926.3l71.4-61.2c132.7-114.8,441.4-56.1,489.9,89.3c25.5,79.1,63.8,63.8,63.8-23v-76.6H8276h216.9v1314.1V602.4h-229.7h-229.7
		V257.9z M8020.9-979.7v-701.7h-63.8h-63.8l-7.7,676.2c-2.6,372.5,0,691.5,7.7,709.4c7.7,17.9,38.3,30.6,68.9,25.5l58.7-7.7V-979.7z
		"/>
	<path class="st0" d="M4027.5,270.7c0-160.8-5.1-178.6-51-178.6s-51-17.9-51-165.9s5.1-165.9,51-165.9c51,0,51-17.9,51-757.8
		c0-459.3,10.2-798.7,28.1-857.4c35.7-127.6,135.2-171,393-171h191.4v163.3c0,153.1-5.1,163.3-63.8,178.6
		c-35.7,10.2-68.9,40.8-76.5,74c-7.7,30.6-10.2,349.6-7.7,706.8l7.7,650.7l71.4,7.7c71.4,7.7,71.4,10.2,63.8,165.9
		c-7.7,150.5-10.2,158.2-76.5,165.9c-71.4,7.7-71.4,10.2-71.4,186.3v176.1h-229.7h-229.7V270.7z"/>
	<path class="st0" d="M5456.4,270.7c0-160.8-5.1-178.6-51-178.6s-51-17.9-51-165.9s5.1-165.9,51-165.9c51,0,51-17.9,53.6-706.8
		c0-1056.4,2.6-1061.5,380.2-1074.3l229.7-10.2v163.3c0,142.9-7.7,163.3-56.1,186.3c-58.7,25.5-58.7,25.5-66.3,734.9l-5.1,706.8
		h63.8c61.2,0,63.8,5.1,63.8,165.9s-2.6,165.9-63.8,165.9s-63.8,5.1-63.8,178.6v178.6h-242.4h-242.4V270.7z"/>
	<path class="st0" d="M6546,143.1c-168.4-30.6-283.2-122.5-334.3-273c-33.2-97-40.8-242.4-40.8-808.9c0-423.6,10.2-729.8,28.1-793.6
		c61.2-222,275.6-334.3,589.4-313.9c222,17.9,321.5,76.6,403.2,237.3c63.8,127.6,63.8,132.7,63.8,829.3
		c0,385.3-10.2,745.1-20.4,798.7C7181.4,69.1,6898.1,201.8,6546,143.1z M6783.3-211.6c15.3-30.6,25.5-313.9,25.5-740
		c0-592-5.1-694.1-40.8-727.2c-30.6-30.6-51-33.2-89.3-15.3c-45.9,25.5-48.5,61.2-48.5,747.6c0,729.8,7.7,783.4,94.4,783.4
		C6742.5-163.1,6768-186.1,6783.3-211.6z"/>
	<path class="st0" d="M9036.4,143.1c-165.9-35.7-257.7-94.4-319-211.8c-56.1-102.1-58.7-137.8-66.3-788.5
		c-5.1-459.3,0-732.3,20.4-829.3c53.6-247.5,219.4-364.9,523.1-364.9s469.5,117.4,523.1,364.9c20.4,97,25.5,370,20.4,829.3
		c-7.7,655.8-10.2,686.4-66.3,791c-43.4,81.7-89.3,125-165.9,158.2C9370.7,150.7,9176.8,171.2,9036.4,143.1z M9253.3-193.7
		c23-23,30.6-224.5,30.6-752.7c0-686.4-2.6-722.1-48.5-747.6c-38.3-17.9-58.7-15.3-89.3,15.3c-35.7,33.2-40.8,135.2-40.8,727.2
		c0,426.1,10.2,709.4,25.5,740C9161.5-155.5,9207.4-147.8,9253.3-193.7z"/>
	<path class="st0" d="M526.6,92.1C302.1,25.7,200-127.4,200-397.9c0-288.3,89.3-451.6,385.3-694.1c97-81.7,193.9-181.2,216.9-222
		c53.6-107.2,40.8-377.6-23-415.9c-81.7-51-119.9,40.8-119.9,296v224.5H429.7H200v-234.8c0-285.8,28.1-398.1,119.9-487.4
		c109.7-102.1,239.9-145.4,449.1-145.4c247.5,0,387.9,68.9,472.1,229.7c53.6,102.1,58.7,142.9,51,398.1
		c-10.2,339.4-20.4,359.8-347,645.6C712.9-599.5,659.3-517.8,659.3-374.9c0,125,28.1,168.4,104.6,155.7
		c58.7-7.7,61.2-17.9,68.9-229.7l7.7-224.5h227.1h229.7v216.9c0,127.6-15.3,252.6-35.7,301.1C1218.1-48.3,1093.1,56.3,970.6,92.1
		C860.9,122.7,626.1,122.7,526.6,92.1z"/>
	<path class="st0" d="M3348.8,92.1c-28.1-10.2-84.2-56.1-119.9-102.1l-68.9-81.7V0.2v91.9h-229.7h-229.7V-966.9v-1058.9h229.7h229.7
		v849.7c0,877.8,2.6,910.9,104.6,910.9c66.3,0,74-51,74-436.3v-354.7h232.2h229.7l-7.7,512.9l-7.7,512.9l-84.2,74
		c-63.8,58.7-104.6,74-191.4,71.4C3450.8,115,3379.4,104.8,3348.8,92.1z"/>
	<path class="st0" d="M1450.3-852.1c0-1015.6,5.1-1071.7,130.1-1158.5c68.9-45.9,255.2-53.6,336.8-12.8
		c30.6,15.3,81.7,58.7,112.3,94.4l58.7,68.9v-81.7v-84.2h229.7h229.7v1058.9V92.1h-229.7h-229.7l-5.1-872.7l-7.7-875.2l-61.2-7.7
		c-33.2-5.1-71.4,5.1-81.7,25.5c-12.8,17.9-23,415.9-23,882.9V92.1H1680h-229.7V-852.1z"/>
</g>
</svg>
