<?xml version="1.0" encoding="utf-8"?>
<!-- Generator: Adobe Illustrator 19.2.1, SVG Export Plug-In . SVG Version: 6.00 Build 0)  -->
<svg version="1.1" xmlns="http://www.w3.org/2000/svg" xmlns:xlink="http://www.w3.org/1999/xlink" x="0px" y="0px"
	 viewBox="0 0 1000 500" style="enable-background:new 0 0 1000 500;" xml:space="preserve">
<style type="text/css">
	.st0{fill:#FFFFFF;}
</style>
<g id="Capa_1">
	<g transform="translate(0.000000,200.000000) scale(0.100000,-0.100000)">
		<path class="st0" d="M4897.2,1115.6c-2.1-149.8-47.9-314.2-108.2-391.1c-62.5-79.1-145.6-116.5-328.7-147.7
			c-141.5-22.9-147.7-27.1-62.5-29.1c241.3-6.3,411.9-116.5,466.1-301.7c49.9-162.3,43.7-178.9-52-178.9h-83.2v-863.4v-863.4h187.3
			h187.3v863.4V67.1h-95.7h-95.7l14.6,89.4c35.4,237.2,170.6,362,411.9,384.9l129,12.5l-151.9,24.9
			c-268.4,45.7-362,164.4-397.4,488.9C4901.3,1240.5,4901.3,1240.5,4897.2,1115.6z"/>
		<path class="st0" d="M7391.6,202.3V-78.6L7323-3.7c-83.2,91.6-216.4,116.5-320.4,64.5c-108.2-58.2-112.4-85.3-106.1-907.1
			c-1.7-231.5-3.4-463.1-5.1-694.6c23.2-36.9,46.4-73.7,69.6-110.6c108.2-93.6,359.9-45.7,399.4,72.8c20.8,64.5,52,52,52-18.8v-62.5
			h176.8h176.8v1071.4V483.2h-187.3h-187.3C7391.6,389.6,7391.6,295.9,7391.6,202.3z M7381.3-806.8v-572.1h-52h-52l-6.3,551.3
			c-2.1,303.7,0,563.8,6.3,578.4c6.3,14.6,31.2,24.9,56.2,20.8l47.9-6.3L7381.3-806.8L7381.3-806.8z"/>
		<path class="st0" d="M4125.3,212.7c0-131.1-4.2-145.6-41.6-145.6s-41.6-14.6-41.6-135.3s4.2-135.3,41.6-135.3
			c41.6,0,41.6-14.6,41.6-617.9c0-374.5,8.3-651.2,22.9-699.1c29.1-104,110.2-139.4,320.4-139.4h156.1v133.1
			c0,124.8-4.2,133.1-52,145.6c-29.1,8.3-56.2,33.3-62.4,60.3c-6.3,24.9-8.3,285-6.3,576.3l6.3,530.5l58.2,6.3
			c58.2,6.3,58.2,8.3,52,135.3c-6.3,122.7-8.3,129-62.4,135.3c-58.2,6.3-58.2,8.3-58.2,151.9v143.6h-187.3h-187.3L4125.3,212.7
			L4125.3,212.7z"/>
		<path class="st0" d="M5290.3,212.7c0-131.1-4.2-145.6-41.6-145.6c-37.4,0-41.6-14.6-41.6-135.3c0-120.7,4.2-135.3,41.6-135.3
			c41.6,0,41.6-14.6,43.7-576.3c0-861.3,2.1-865.5,310-875.9l187.3-8.3v133.1c0,81.1-3,113.8-18.2,132.5
			c-4.6,5.7-13.7,17.9-27.5,19.3c-18,1.9-29-15.5-34.9-15.2c-22.1,1.4-25.2,258.8-19.2,614.4l-4.2,576.3h52c49.9,0,52,4.2,52,135.3
			c0,131.1-2.1,135.3-52,135.3c-49.9,0-52,4.2-52,145.6v145.6h-197.6h-197.6C5290.4,309.8,5290.4,261.3,5290.3,212.7z"/>
		<path class="st0" d="M6178.7,108.7c-137.3-24.9-230.9-99.9-272.6-222.6c-27.1-79.1-33.3-197.6-33.3-659.5
			c0-345.4,8.3-595,22.9-647.1c49.9-181,224.7-272.6,480.6-255.9c181,14.6,262.1,62.5,328.7,193.5c52,104,52,108.2,52,676.2
			c0,314.2-8.3,607.5-16.6,651.2C6696.8,48.4,6465.8,156.6,6178.7,108.7z M6372.2-180.5c12.5-24.9,20.8-255.9,20.8-603.4
			c0-482.7-4.2-565.9-33.3-592.9c-24.9-24.9-41.6-27.1-72.8-12.5c-37.4,20.8-39.5,49.9-39.5,609.6c0,595,6.3,638.7,77,638.7
			C6338.9-141,6359.7-159.7,6372.2-180.5z"/>
		<path class="st0" d="M8209.2,108.7C8074,79.6,7999.1,31.7,7949.1-64c-45.7-83.2-47.9-112.4-54.1-642.9
			c-4.2-374.5,0-597.1,16.6-676.2c43.7-201.8,178.9-297.5,426.5-297.5s382.8,95.7,426.5,297.5c16.6,79.1,20.8,301.7,16.6,676.2
			c-6.3,534.7-8.3,559.7-54.1,644.9C8691.9,4.7,8654.5,40,8592,67C8481.8,114.9,8323.7,131.6,8209.2,108.7z M8386.1-165.9
			c18.8-18.8,24.9-183,24.9-613.7c0-559.7-2.1-588.8-39.5-609.6c-31.2-14.6-47.9-12.5-72.8,12.5c-29.1,27.1-33.3,110.2-33.3,592.9
			c0,347.4,8.3,578.4,20.8,603.4C8311.2-134.8,8348.7-128.5,8386.1-165.9z"/>
		<path class="st0" d="M1270.8,67.1c-183-54.1-266.3-179-266.3-399.5c0-235.1,72.8-368.2,314.2-565.9
			c79.1-66.6,158.1-147.7,176.8-181c43.7-87.4,33.3-307.9-18.8-339.1c-66.6-41.6-97.8,33.3-97.8,241.3v183h-187.2h-187.3v-191.4
			c0-233,22.9-324.6,97.8-397.4c89.4-83.2,195.6-118.6,366.2-118.6c201.8,0,316.3,56.2,384.9,187.3c43.7,83.2,47.9,116.5,41.6,324.6
			c-8.3,276.7-16.6,293.4-282.9,526.4c-189.3,166.4-233,233-233,349.5c0,101.9,22.9,137.3,85.3,126.9c47.9-6.3,49.9-14.6,56.2-187.3
			l6.3-183h185.2h187.3v176.8c0,104-12.5,206-29.1,245.5c-35.5,87.3-137.4,172.6-237.3,201.8C1543.4,92.1,1352,92.1,1270.8,67.1z"/>
		<path class="st0" d="M3571.9,67.1c-22.9-8.3-68.7-45.7-97.8-83.2L3418-82.7v74.9v74.9h-187.3h-187.3v-863.4v-863.4h187.3H3418
			v692.8c0,715.7,2.1,742.7,85.3,742.7c54.1,0,60.3-41.6,60.3-355.7v-289.2h189.3h187.3l-6.3,418.2l-6.3,418.2L3859,27.6
			c-52,47.9-85.3,60.3-156.1,58.2C3655.1,85.8,3596.8,77.5,3571.9,67.1z"/>
		<path class="st0" d="M2024-702.7c0-828.1,4.2-873.8,106.1-944.6c56.2-37.4,208.1-43.7,274.6-10.4c24.9,12.5,66.6,47.9,91.6,77
			l47.9,56.2v-66.6v-68.7h187.3h187.3v863.4V67.1h-187.3h-187.3l-4.2-711.5l-6.3-713.6l-49.9-6.3c-27.1-4.2-58.2,4.2-66.6,20.8
			c-10.4,14.6-18.8,339.1-18.8,719.9V67.1h-187.1H2024V-702.7z"/>
	</g>
</g>
<g id="Capa_2">
</g>
</svg>
