<?xml version="1.0" encoding="utf-8"?>
<!-- Generator: Adobe Illustrator 19.2.1, SVG Export Plug-In . SVG Version: 6.00 Build 0)  -->
<svg version="1.1" xmlns="http://www.w3.org/2000/svg" xmlns:xlink="http://www.w3.org/1999/xlink" x="0px" y="0px"
	 viewBox="0 0 1000 500" style="enable-background:new 0 0 1000 500;" xml:space="preserve">
<style type="text/css">
	.st0{fill:#FFFFFF;}
</style>
<g id="Capa_1">
	<path class="st0" d="M486.8,39.5c-10.7,5.4-15.4,14-16.8,31l-1.4,15.1l-14.4,11.7c-7.9,6.5-21.4,17.7-30.1,24.7
		c-17,13.7-26.1,25.2-28.2,35.7c-0.7,3.5-2.1,6.8-3,7.5c-0.7,0.5-7-3.7-13.5-9.6c-8.4-7.5-12.1-12.4-12.1-16.3
		c0-7.7-5.6-18.4-12.1-22.8c-6.8-4.7-22.6-4.7-29.4,0c-6.3,4.4-12.1,15.1-12.1,22.6c0,4.2-4.9,10-17.2,21.2
		c-20.5,18.4-28.2,31.7-26.3,46.4c0.5,5.4,1.9,11.7,2.8,13.7c1.6,4-2.3,4.2-62.2,4.2c-63.8,0-64.1,0-69,5.4
		c-4.4,4.7-5.1,8.2-5.1,22.6c0,14,0.9,18.2,4.7,22.1l4.9,5.1l-5.8,11.2c-12.6,23.5-9.6,40.1,10.5,58c18.4,16.5,32.9,21.2,65,21.2
		c24,0,28.4-0.7,41.7-6.5l14.9-6.3l12.1,6.1c14.2,6.8,35.2,10.3,51.3,8.6c13-1.6,13-1.9-4,18.6c-13.7,16.5-15.1,22.1-10,35.4
		c5.6,15.1,13.5,20.5,26.8,18.9c5.8-0.9,18.4-2.3,28-3.3c9.6-0.9,20.7-3.5,24.5-5.6c6.8-3.5,7.2-3.5,14,1.9
		c10.3,8.2,20.3,9.3,30.1,3.7c5.8-3.5,10.5-4.4,18.6-3.5c7.5,0.9,12.4,0.2,16.3-2.3c4.9-3.3,6.1-3.3,8.4-0.5
		c4.4,5.4,15.4,6.5,23.5,2.3c5.4-2.8,10.3-3.5,18.2-2.3c5.8,0.9,18.2,1.9,27,2.3c9.1,0.5,19.3,1.9,22.8,3.3c8.6,3.3,14.7,3.3,21-0.2
		c2.8-1.6,11-2.6,17.9-2.1c7.2,0.2,15.8-0.7,19.3-1.9c4.2-1.6,8.4-1.6,13,0c14.7,5.1,32.6-10.7,29.4-26.1c-0.9-3.7-2.6-7.2-3.7-8.2
		c-1.4-0.7-5.1-7.2-8.6-14.4c-3.3-7.5-6.5-14-7-15.1c-0.5-0.9,13.7-1.6,31.5-1.6c20.5,0,33.3-0.9,35-2.6c1.9-1.9,7-1.9,18.9,0.2
		c9.6,1.9,26.3,2.6,40.8,1.9c20.5-0.9,26.6-2.1,37.5-7.5c24.5-12.1,38.7-36.4,38.7-66.6c0-16.1,0-16.1-14-34.7
		c-17.2-22.8-30.5-34.5-42.9-37.8c-5.6-1.6-21.2-2.1-37.5-1.6c-21.9,0.7-30.3,2.1-38.9,6.1l-11.2,4.9l5.1-9.8
		c6.1-11.9,6.5-28,0.9-38.4c-2.3-4.4-11.9-15.4-21.4-24.5c-9.6-9.1-17.2-18.4-17.2-20.7c0-15.1-13-27.5-29.4-27.5
		c-11.2,0-24.2,12.4-24.2,23.1c0,5.6-2.8,9.8-13.3,19.8l-13.3,12.6l-4-11.9c-4.7-13.5-17.5-26.8-52.2-54.1l-21-16.3L528,70.7
		c-1.4-17.9-6.3-27-17.5-31.7C500.5,34.8,496.1,35,486.8,39.5z M503.3,55.8c2.8,1.2,3.7,4.9,3.7,16.1c0,13.5,0.7,15.1,9.1,24.9
		c5.1,5.6,15.4,14.9,22.8,20.5c37.1,28,45,37.1,45,51.3c0,9.1-7.5,23.8-15.1,30.1c-5.1,3.7-5.6,5.4-3.7,9.3
		c4.2,7.7,2.8,14.2-4.4,21.7c-5.4,5.4-7,9.1-7,16.1c0,6.5-0.9,9.1-3.5,9.1c-2.6,0-3.5-2.8-3.5-11.7c0-7.5,0.9-11.7,2.8-11.7
		c10,0,14.9-17.9,6.3-24c-4.7-3.3-4.4-3.5,3.5-8.4c10.5-6.5,17.7-18.4,17.7-28.9c0-11-7.7-19.8-38.2-43.3
		c-21.9-16.8-36.4-31.7-36.4-37.3c0-6.3-4.9-3.7-10.3,5.4c-5.4,9.3-11.9,15.1-52.2,46.8c-14.4,11.4-20,19.3-19.8,28.2
		c0.2,10,8.4,22.8,18.2,29.6c7.5,5.1,7.7,5.6,3.3,8.2c-8.2,5.1-3.3,23.8,6.5,23.8c2.1,0,3,3.5,3,11.7c0,8.9-0.9,11.7-3.5,11.7
		s-3.5-2.6-3.5-9.1c0-7-1.6-10.7-7-16.1c-7.2-7.5-8.6-14-4.7-21.7c2.1-3.7,1.4-5.6-4.2-10.3c-8.4-7-14.4-19.1-14.4-29.1
		c0-14.2,7.7-23.5,41-48.2c10.3-7.9,22.1-17.9,26.1-22.6c6.5-7.5,7.5-10.3,7.5-22.4C488.4,58.1,493.3,51.8,503.3,55.8z M343.5,134.1
		c1.6,1.6,2.8,5.8,2.8,9.6c0,5.6,4.2,11.2,20.7,28.2c11.4,11.7,21.4,23.5,22.1,26.1c1.9,6.1-1.9,16.5-8.4,23.5
		c-3,3.3-4.2,6.5-3.3,9.6c1.9,5.6-5.6,23.8-9.6,23.8c-1.6,0-3-2.6-3-5.8s0.9-5.8,2.1-5.8c7.2,0,3.3-16.3-4-16.3
		c-2.3-0.2-0.2-2.1,4.7-4.9c4.9-2.3,10.5-7.7,12.4-11.4c4.9-9.6,1.4-15.8-18.4-33.3c-8.6-7.5-17-16.8-19.1-20.5l-3.5-7l-5.6,8.4
		c-3.3,4.4-12.6,14.7-21,22.4c-8.4,7.9-15.8,16.8-16.5,19.8c-1.9,7.5,4.2,16.5,14.2,21.2c7.9,3.7,7.9,4,2.8,6.3
		c-6.3,3.3-7.9,11.2-2.8,15.4c4.4,3.7,4.7,11.7,0,11.7c-1.9,0-3.5-1.4-3.5-3c0-1.4-1.6-5.8-3.7-9.8c-1.9-3.7-3-8.9-2.3-11.4
		c0.7-2.8-1.4-7.5-5.6-12.4c-12.1-13.7-8.6-25.2,14-44.7c16.3-14.2,23.3-24.2,23.3-33.1C332.3,131.3,337.6,128.3,343.5,134.1z
		 M661.8,136.4c0.7,1.6,1.6,6.1,2.6,9.8c0.9,4.2,9.6,15.1,22.4,28.4c18.2,18.6,20.7,22.6,20.7,29.6c0,5.6-2.1,10.7-6.3,15.8
		c-4.9,5.6-6.1,9.6-5.6,16.1c0.2,4.9-0.5,9.6-1.9,10.5c-1.4,0.7-2.6,7.7-2.6,15.4c0,10.7-0.7,13.7-3.5,13.7c-2.8,0-3.5-3.3-3.5-14.9
		c0-8.4,1.2-15.8,2.3-16.5c4.4-2.8,2.6-12.8-2.8-14.9l-5.1-1.9l5.6-3c10.5-5.4,16.3-12.1,16.3-19.3c0-5.4-3.5-9.8-16.5-22.1
		c-9.1-8.6-19.1-19.3-22.1-23.8c-3-4.4-5.6-6.8-5.6-4.9c0,1.6-9.3,12.4-21,24c-16.3,16.1-21,22.1-21,27.3c0,6.5,6.1,13.5,16.3,18.9
		l5.6,3l-5.1,1.9c-5.8,2.3-7,11.7-1.9,15.8c4.2,3.5,3.3,10.5-1.6,11.4c-2.6,0.5-4-0.7-4-4c0-2.6-1.2-5.4-2.6-6.1
		c-1.4-0.9-2.1-5.6-1.9-10.5c0.5-6.5-0.7-10.5-5.6-16.1c-4.2-5.1-6.3-10.3-6.3-15.8c0-7,2.6-11,20.7-29.6
		c12.8-13.3,21.4-24.2,22.4-28.4c2.6-11.4,3.3-12.6,7-12.6C659.4,133.6,661.3,135,661.8,136.4z M519.6,152.5
		c0.7,4,1.4,19.1,1.4,33.8c0,14.4,1.2,29.1,2.6,32.9c2.3,6.5,2.3,6.5-2.3,1.9c-4.2-4.2-4.7-8.4-5.4-40.3
		C515.2,146.7,516.4,137.1,519.6,152.5z M509.1,155.5c-0.5,0.2-4.7,1.9-9.1,3.3c-7.5,2.6-7.7,2.3-3.7-0.7
		C500,155.3,512.4,152.7,509.1,155.5z M490.7,162.5c0,0.5-1.9,2.3-4,4c-3.7,3-4,2.8-0.9-0.9C488.9,161.8,490.7,160.6,490.7,162.5z
		 M492.1,181.6c5.6,1.4,5.6,1.4-1.9,5.4c-17,8.6-19.8,23.3-5.8,29.4c7.5,3.3,7.5,3.3,1.4,3.5c-3.5,0-8.6-1.9-11.4-4.2
		c-6.8-5.4-5.1-14.4,4.2-23.8c4.7-4.7,5.8-7.2,4.2-9.8c-1.2-2.1-1.4-5.4-0.2-7.9c1.9-4.2,2.1-4,2.8,0.7
		C486.1,178.1,488.6,180.7,492.1,181.6z M281.7,250.1c-6.8,4-14.4,10.3-17.5,14l-5.1,7H233h-26.3l-8.2,8.4
		c-9.6,9.8-12.4,19.6-8.4,28.9c5.8,14.2,31,17.9,58.3,8.6l15.1-5.1l1.2-12.8c1.6-14.9,4.2-20.5,14-28.9
		c12.8-10.7,17.7-11,129.8-10.3c113.5,0.7,114.4,0.9,107,12.1c-5.4,8.4-5.4,51.5,0.2,57.8c2.1,2.3,5.6,4.2,7.9,4.2
		c4,0,4.4-3,4.9-36.8l0.7-36.6l38.4-0.7c28.4-0.5,39.6,0.2,42.4,2.3c2.6,1.9,4.7,8.6,6.1,18.2l2.1,15.1l1.6-9.3
		c3.5-17.7,6.1-24,11.4-25.4c7.9-2.1,35-1.6,38.7,0.7c2.8,1.9-0.7,5.4-10.7,10.7c-0.5,0.2-3.3,12.8-6.3,28.2
		c-6.1,29.6-5.6,34.3,4,36.8c6.8,1.6,20.3-2.1,23.1-6.1c3.3-5.1,2.1-17.5-3-30.8c-2.6-7.2-4.2-14-3.3-15.4c0.7-1.2,7.2-2.3,14.2-2.3
		h12.6v8.2c0,7.2-0.7,8.2-5.8,8.2c-9.8,0-6.8,7,10.5,23.5c16.5,15.8,21,25.4,12.6,28.7c-5.4,2.1-93.7,1.6-94.8-0.5
		c-0.5-0.9-0.2-13.3,0.7-27.3c0.9-14.2,1.4-26.1,0.9-26.6s-2.8,3.7-5.4,9.6c-6.5,15.4-16.5,22.8-30.8,22.8
		c-16.5,0-26.3-10.5-15.6-17c3.7-2.3,6.8-1.6,14.2,3.5c9.3,6.5,14.4-13.3,7.7-29.6c-5.8-13.5-22.8-21-34.3-15.1
		c-4,2.3-4.4,5.1-4.4,31.7v29.1l8.4,7.9c4.7,4.4,7.7,9.1,6.8,10.5c-0.9,1.4-15.8,2.3-40.8,2.3c-49.2,0-46.6,2.3-46.6-40.3
		c0-28.4-0.2-30.1-5.8-35.4c-7.2-7.2-11.4-7.2-18.6,0c-5.4,5.1-5.8,7.2-5.8,29.1c0,20.3,0.7,24.7,4.7,29.6c2.6,3.3,4.7,8.6,4.7,11.7
		c0,5.6-0.2,5.6-21.4,4.9l-21.7-0.7l0.5-6.8c0.2-3.7,2.1-8.6,4.2-11c3.3-3.3,3.7-8.4,3-28.9c-0.7-22.8-1.2-25.2-6.3-29.4
		c-7-5.6-13-5.6-18.9,0.2c-4.2,4.2-4.7,7.7-4.7,29.6c0,18.6,0.9,25.6,3.5,28.7c1.9,2.1,4.2,7.2,4.9,11.2l1.6,7.5h-22.6
		c-22.4,0-22.4,0-22.4-5.8V341l-9.8,5.1c-19.8,10.3-56.9,5.4-73.2-10c-4.7-4.4-4.9-4.4-21,3.7c-19.3,10-38.9,13.5-57.6,10.5
		c-24-3.7-48.2-21-48.2-34s11.7-29.1,33.8-47.1l9.3-7.5h-20.5h-20.3v-9.3v-9.3h69.4h69.2L281.7,250.1z M811.1,248.3
		c3.5,2.8,12.6,12.8,20.3,22.6c14,17.5,14,17.7,12.8,30.1c-1.9,17-12.4,35.2-24.2,41.7c-21.7,12.4-65.9,11.7-86.9-1.2
		c-12.1-7.5-24.2-25.9-26.6-40.3c-3-19.3,7.2-39.1,26.3-51.5c10-6.3,11.4-6.5,41.2-6.5C802.1,243.1,805.3,243.6,811.1,248.3z
		 M430.4,393.9c-0.5,25.6-0.2,27.3,3.3,22.8c2.1-2.6,3.3-3.3,2.3-1.9c-0.7,1.6-0.5,3,0.9,3c1.2,0,2.8-1.4,3.3-3
		c0.9-1.6,1.4-1.4,1.4,1.2c0.2,2.1,1.6,4.4,3.3,5.1c1.4,0.7-0.7,0.7-5.1,0c-7-1.4-7.7-0.9-6.3,2.8c1.4,4,1.2,4-1.6,0.9
		c-4-4.2-7.2-64.8-3.3-60.8C429.7,365.2,430.4,378.5,430.4,393.9z M616.1,385.8c-0.5,13.3,0.2,26.6,1.2,29.8l1.9,5.8l-4.2-5.4
		c-3.5-4.2-4.9-4.7-7.5-2.3c-1.9,1.9-1.6,0.7,0.5-2.8c3.7-6.1,3-16.3-1.2-16.3s-17.2,14.7-14,15.8c2.3,0.7,2.3,1.6,0.5,4.2
		c-3.5,4-0.7,8.6,4,7c1.9-0.7,2.6-0.2,1.9,0.9c-3.3,5.1-10,2.3-11.4-4.9c-1.6-8.9,7.9-22.1,17.7-24.2c6.3-1.4,6.5-2.1,6.5-16.5
		c0-8.4,0.9-14.9,2.3-14.9C615.6,362,616.3,371.1,616.1,385.8z M371.6,382.3c-1.6,17.9-1.6,20.5,1.4,34.5c1.4,6.5,1.2,6.8-2.6,3
		c-3.7-3.7-4.4-3.5-12.1,3c-9.1,8.2-12.4,7.9-14.9-1.4c-1.4-5.4-0.5-8.4,4.4-14.7c3.3-4.4,8.9-8.9,12.6-10.3c6.3-2.1,6.8-3,6.8-15.6
		s1.2-16.5,4.4-16.5C372.6,364.3,372.3,372.5,371.6,382.3z M527.3,372.7c0.7,2.1-1.4,9.6-4.7,16.3c-7,14.2-7.5,15.8-3.5,13.5
		c1.6-0.9,1.9-0.7,0.9,1.2c-0.9,1.4-2.8,1.9-4.2,1.2c-1.4-0.9-2.1-0.2-1.4,1.6s-0.9,6.3-3.5,9.8c-8.2,11.9-6.8,4.9,3-14.9
		c6.8-13,9.3-21.2,8.9-25.9C521.7,368.5,525,366.4,527.3,372.7z M509.6,379.9c-5.6,4.7-12.1,12.8-14.4,17.9
		c-3.5,7.5-4.4,8.4-4.4,4.2c0-5.1,22.8-30.8,27.3-30.8C518.9,371.3,515.2,375.3,509.6,379.9z M532.4,394.4c-2.6,7-4.4,14.4-4,16.8
		s-0.2,4.2-1.6,4.2c-4,0,1.2-24.7,6.5-31.9C537.6,378.1,537.3,382,532.4,394.4z M579.7,391.6c2.3,2.1,4.2,6.1,4,8.6
		c-0.2,4.2-0.5,4.2-1.9-0.9c-0.9-3.3-4.2-7-7.2-8.6c-3.3-1.6-4.4-3-2.6-3C573.9,387.6,577.4,389.2,579.7,391.6z M402.2,391.6
		c0,1.2-0.9,3.3-2.1,4.9c-1.4,2.3-2.3,2.1-3.3-1.6c-0.7-3.3,0-4.9,2.1-4.9C400.8,389.9,402.2,390.6,402.2,391.6z M655.5,405.1
		c6.1,15.8,6.1,15.8,2.8,14c-1.2-0.9-3.5-4.4-4.7-7.7c-2.3-6.1-2.6-6.1-5.8-1.9c-4,5.6-4.2,3.7-0.7-4c1.9-4.2,1.9-7-0.2-11
		c-2.3-4.2-2.1-4.9,0.2-4.2C648.7,390.9,652.7,397.6,655.5,405.1z M389.1,397.2c-3.5,4-3.7,5.1-0.9,6.8c2.6,1.6,2.1,2.1-1.9,1.6
		c-6.3-0.5-6.3-1.2,0-7.9S395.2,390.4,389.1,397.2z M466.5,406.3c4.9,14,4.2,19.3-1.2,7.9l-2.8-6.3l-6.1,5.6l-6.3,5.6l5.1-6.8
		c6.1-7.9,6.3-11.4,1.4-16.3c-3.3-3.5-3.3-3.7,0.7-3.7C460.4,392.3,463,396,466.5,406.3z M546.4,404.4c1.6,5.6,3.5,11.4,4,13
		c0.9,1.9,0,2.3-2.6,1.4c-2.1-0.9-4.4-4.7-5.1-8.2c-0.7-3.7-2.1-7.5-3.3-8.2c-2.1-1.2-0.2-7.9,2.6-7.9
		C542.9,394.6,545,399,546.4,404.4z M561.6,407c1.9,1.4,1.6,2.3-0.5,3.3c-2.3,0.9-2.3,1.9-0.2,4.4c3.3,4,9.3,4.2,13.7,0.2
		c2.8-2.3,2.8-2.1,0.2,1.2c-4,5.1-15.6,5.6-17.5,0.5c-0.7-2.1-1.4-7-1.2-11c0-4.2,0.7-5.8,1.4-4C558.3,403.5,560.2,406,561.6,407z
		 M446.4,404.9c0,0.5-1.9,2.3-4,4c-3.7,3-4,2.8-0.9-0.9C444.6,404.2,446.4,403,446.4,404.9z M632.9,406.3c0,1.2-1.2,2.3-2.6,2.3
		c-1.2,0-1.6-1.2-0.9-2.3c0.7-1.4,1.9-2.3,2.6-2.3C632.4,403.9,632.9,404.9,632.9,406.3z M385.4,421.9c3.3,2.8,3.3,3,0,3
		c-5.6,0-8.9-5.4-7-11.9l1.6-5.6l0.7,5.8C381.2,416.5,383.3,420.5,385.4,421.9z M633.8,418.4c1.4,0.9-0.2,1.9-3.7,1.9
		s-7-1.2-7.7-2.3c-0.7-1.4,0.2-2.3,2.1-2.3c2.1,0,3.7-1.4,4-3c0-1.6,0.7-1.4,1.4,0.7C630.5,415.1,632.4,417.4,633.8,418.4z"/>
	<path class="st0" d="M363.7,275.3c-5.6,3-13.5,3.5-39.8,3c-35.4-0.5-39.4,0.7-37.8,11.9c0.7,5.1,1.6,5.4,27,6.1
		c25.9,0.7,26.3,0.7,25.6,5.8c-0.7,4.9-1.9,5.1-22.4,5.1c-16.5,0-22.1,0.7-23.8,3.5c-3.5,5.4-2.8,8.6,3.3,15.6
		c5.1,5.8,7.2,6.5,24.2,7.2c19.8,0.9,36.4-2.8,46.6-10.7c4.9-4,5.4-5.6,4.7-27.7l-0.7-23.5L363.7,275.3z"/>
	<path class="st0" d="M745.9,265.5c-11,11.9-7,33.8,9.8,52.2c21.9,24.7,52,21,52-6.3c0-13.3-5.1-25.4-15.8-36.4
		c-11.2-11.7-19.1-15.6-30.8-15.6C753.8,259.5,750.1,260.8,745.9,265.5z"/>
	<path class="st0" d="M356,400.9c-1.6,0.7-4.7,4.4-6.5,8.2c-3.5,6.8-3.5,7.2,0.5,5.6c4.2-1.4,4.2-1.2,0.5,1.9
		c-5.6,4.2-5.4,8.4,0.2,8.4c4.2,0,16.5-12.1,16.5-16.3C367.2,400.9,363,398.1,356,400.9z"/>
</g>
<g id="Capa_2">
</g>
</svg>
