<?xml version="1.0" encoding="utf-8"?>
<!-- Generator: Adobe Illustrator 19.2.1, SVG Export Plug-In . SVG Version: 6.00 Build 0)  -->
<svg version="1.1" xmlns="http://www.w3.org/2000/svg" xmlns:xlink="http://www.w3.org/1999/xlink" x="0px" y="0px"
	 viewBox="0 0 1000 500" style="enable-background:new 0 0 1000 500;" xml:space="preserve">
<style type="text/css">
	.st0{display:none;}
	.st1{display:inline;}
	.st2{fill:#FFFFFF;}
	.st3{fill:#010202;}
</style>
<g id="Capa_1" class="st0">
	<g transform="translate(0.000000,200.000000) scale(0.100000,-0.100000)" class="st1">
		<path class="st2" d="M4974.2,1378.1c-2.6-183.7-58.7-385.3-132.7-479.7c-76.6-97-178.6-142.9-403.2-181.2
			c-173.5-28.1-181.2-33.2-76.6-35.7c296-7.7,505.2-142.9,571.6-370c61.2-199,53.6-219.4-63.8-219.4h-102.1V-966.9v-1058.9h229.7
			h229.7v1058.9V92.1h-117.4H4992l17.9,109.7c43.4,290.9,209.2,444,505.2,472.1l158.2,15.3l-186.3,30.6
			c-329.2,56.1-444,201.6-487.4,599.6C4979.3,1531.2,4979.3,1531.2,4974.2,1378.1z"/>
		<path class="st2" d="M8033.6,257.9V-86.6l-84.2,91.9c-102.1,112.3-265.4,142.9-393,79.1c-132.7-71.4-137.8-104.6-130.1-1112.5
			l7.7-926.3l71.4-61.2c132.7-114.8,441.4-56.1,489.9,89.3c25.5,79.1,63.8,63.8,63.8-23v-76.6H8276h216.9v1314.1V602.4h-229.7
			h-229.7V257.9z M8020.9-979.7v-701.7h-63.8h-63.8l-7.7,676.2c-2.6,372.5,0,691.5,7.7,709.4c7.7,17.9,38.3,30.6,68.9,25.5l58.7-7.7
			V-979.7z"/>
		<path class="st2" d="M4027.5,270.7c0-160.8-5.1-178.6-51-178.6s-51-17.9-51-165.9s5.1-165.9,51-165.9c51,0,51-17.9,51-757.8
			c0-459.3,10.2-798.7,28.1-857.4c35.7-127.6,135.2-171,393-171h191.4v163.3c0,153.1-5.1,163.3-63.8,178.6
			c-35.7,10.2-68.9,40.8-76.5,74c-7.7,30.6-10.2,349.6-7.7,706.8l7.7,650.7l71.4,7.7c71.4,7.7,71.4,10.2,63.8,165.9
			c-7.7,150.5-10.2,158.2-76.5,165.9c-71.4,7.7-71.4,10.2-71.4,186.3v176.1h-229.7h-229.7V270.7z"/>
		<path class="st2" d="M5456.4,270.7c0-160.8-5.1-178.6-51-178.6s-51-17.9-51-165.9s5.1-165.9,51-165.9c51,0,51-17.9,53.6-706.8
			c0-1056.4,2.6-1061.5,380.2-1074.3l229.7-10.2v163.3c0,142.9-7.7,163.3-56.1,186.3c-58.7,25.5-58.7,25.5-66.3,734.9l-5.1,706.8
			h63.8c61.2,0,63.8,5.1,63.8,165.9s-2.6,165.9-63.8,165.9s-63.8,5.1-63.8,178.6v178.6h-242.4h-242.4V270.7z"/>
		<path class="st2" d="M6546,143.1c-168.4-30.6-283.2-122.5-334.3-273c-33.2-97-40.8-242.4-40.8-808.9
			c0-423.6,10.2-729.8,28.1-793.6c61.2-222,275.6-334.3,589.4-313.9c222,17.9,321.5,76.6,403.2,237.3
			c63.8,127.6,63.8,132.7,63.8,829.3c0,385.3-10.2,745.1-20.4,798.7C7181.4,69.1,6898.1,201.8,6546,143.1z M6783.3-211.6
			c15.3-30.6,25.5-313.9,25.5-740c0-592-5.1-694.1-40.8-727.2c-30.6-30.6-51-33.2-89.3-15.3c-45.9,25.5-48.5,61.2-48.5,747.6
			c0,729.8,7.7,783.4,94.4,783.4C6742.5-163.1,6768-186.1,6783.3-211.6z"/>
		<path class="st2" d="M9036.4,143.1c-165.9-35.7-257.7-94.4-319-211.8c-56.1-102.1-58.7-137.8-66.3-788.5
			c-5.1-459.3,0-732.3,20.4-829.3c53.6-247.5,219.4-364.9,523.1-364.9s469.5,117.4,523.1,364.9c20.4,97,25.5,370,20.4,829.3
			c-7.7,655.8-10.2,686.4-66.3,791c-43.4,81.7-89.3,125-165.9,158.2C9370.7,150.7,9176.8,171.2,9036.4,143.1z M9253.3-193.7
			c23-23,30.6-224.5,30.6-752.7c0-686.4-2.6-722.1-48.5-747.6c-38.3-17.9-58.7-15.3-89.3,15.3c-35.7,33.2-40.8,135.2-40.8,727.2
			c0,426.1,10.2,709.4,25.5,740C9161.5-155.5,9207.4-147.8,9253.3-193.7z"/>
		<path class="st2" d="M526.6,92.1C302.1,25.7,200-127.4,200-397.9c0-288.3,89.3-451.6,385.3-694.1c97-81.7,193.9-181.2,216.9-222
			c53.6-107.2,40.8-377.6-23-415.9c-81.7-51-119.9,40.8-119.9,296v224.5H429.7H200v-234.8c0-285.8,28.1-398.1,119.9-487.4
			c109.7-102.1,239.9-145.4,449.1-145.4c247.5,0,387.9,68.9,472.1,229.7c53.6,102.1,58.7,142.9,51,398.1
			c-10.2,339.4-20.4,359.8-347,645.6C712.9-599.5,659.3-517.8,659.3-374.9c0,125,28.1,168.4,104.6,155.7
			c58.7-7.7,61.2-17.9,68.9-229.7l7.7-224.5h227.1h229.7v216.9c0,127.6-15.3,252.6-35.7,301.1C1218.1-48.3,1093.1,56.3,970.6,92.1
			C860.9,122.7,626.1,122.7,526.6,92.1z"/>
		<path class="st2" d="M3348.8,92.1c-28.1-10.2-84.2-56.1-119.9-102.1l-68.9-81.7V0.2v91.9h-229.7h-229.7V-966.9v-1058.9h229.7
			h229.7v849.7c0,877.8,2.6,910.9,104.6,910.9c66.3,0,74-51,74-436.3v-354.7h232.2h229.7l-7.7,512.9l-7.7,512.9l-84.2,74
			c-63.8,58.7-104.6,74-191.4,71.4C3450.8,115,3379.4,104.8,3348.8,92.1z"/>
		<path class="st2" d="M1450.3-852.1c0-1015.6,5.1-1071.7,130.1-1158.5c68.9-45.9,255.2-53.6,336.8-12.8
			c30.6,15.3,81.7,58.7,112.3,94.4l58.7,68.9v-81.7v-84.2h229.7h229.7v1058.9V92.1h-229.7h-229.7l-5.1-872.7l-7.7-875.2l-61.2-7.7
			c-33.2-5.1-71.4,5.1-81.7,25.5c-12.8,17.9-23,415.9-23,882.9V92.1H1680h-229.7V-852.1z"/>
	</g>
</g>
<g id="Capa_2">
	<path class="st3" d="M493.5,34.3c-11.4,4.5-22.3,27.9-18.1,38.9c1.6,3.8-10.9,15.6-36.9,35.7c-21.9,16.8-30.2,26.1-34,39.3
		l-2.7,8.9l-10.7-10.9c-7.4-7.6-11.2-13.4-11.8-18.1c-2.5-22.6-30.2-31.9-45.8-15.2c-3.6,3.8-6.9,10.5-7.6,15.2
		c-1.1,6.7-4.7,11.6-17.9,24.4c-21,20.3-23.9,25.9-22.8,44.2l0.9,14.1h-59h-59l-6.5,6.5c-6,6-6.5,7.8-6.5,22.1
		c0,13.6,0.9,16.8,5.6,22.3c3.8,4.7,4.9,7.4,3.1,8.3c-4.5,2.9-10.9,19.9-10.9,29.7c0,23.5,21.4,44.2,55.2,53
		c22.1,5.8,45.8,3.6,68.6-6.5l10.9-4.7l13.4,6.7c12.3,6,15.9,6.7,34.4,6.7c11.4,0,20.8,0.4,20.8,0.7c0,0.4-5.6,7.6-12.3,15.6
		c-13.2,15.9-15.4,24.4-9.6,37.8c5.6,13,10.5,16.3,24.4,16.3c7.1,0,13.4-0.9,14.1-1.8c0.7-1.1,6.7-1.6,13.4-0.9
		c9.6,0.7,14.5-0.2,22.3-4l10.3-4.9l6.9,5.8c8.5,7.1,22.1,7.8,30.2,1.6c4.7-3.6,6.7-3.8,13.2-1.8c6.3,1.8,9.4,1.6,15.2-1.1
		c6.3-3.1,8-3.1,11.6-0.4c4.7,3.6,20.3,4.2,22.1,1.1c2.2-3.6,20.1-4.2,26.8-0.7c4.2,2,10.7,2.9,18.8,2.2c6.9-0.7,15.9,0.2,20.8,1.8
		c7.4,2.7,10.1,2.7,18.3-0.2c9.2-3.1,21.4-4,48.3-3.4c12.1,0.2,20.6-3.4,26.4-10.9c4.5-5.8,3.6-19.7-1.6-24.8
		c-2.5-2.5-4.5-5.8-4.5-7.4c0-1.6-2-6.5-4.2-11.2l-4.2-8.3h27.3c18.5,0,28.8-0.9,33.1-3.1c4.9-2.7,7.8-2.7,19,0
		c15.4,3.6,34.6,4,54.1,0.9c25.5-4.2,40.9-15,51.4-36.2c6.3-12.1,6.9-15.9,6.9-33.1v-19.7l-9.6-13c-12.3-16.5-26.4-31.1-35.7-36.6
		c-6.3-3.8-11.4-4.5-39.8-4.5c-29.5,0-33.5,0.4-42.7,5.1l-10.3,5.1l4.7-6.3c2.7-3.6,4.9-10.7,5.6-18.1c1.3-16.1-3.6-25-25-46.2
		c-13-12.7-17-18.1-17-22.8c0-8.5-11.8-21.4-21-23c-15.2-2.9-32.6,10.9-32.6,26.1c0,4.2-3.1,8.7-11.6,16.1l-11.8,10.3l-1.3-6
		c-3.1-15.2-14.5-28.2-42.2-48.7c-26.1-19.4-29-22.8-29-35.3C535,41.5,514.9,25.6,493.5,34.3z M512.7,54.2c1.1,2.5,2.2,9.6,2.2,16.1
		c0,15.2,5.1,21.9,33.1,43.1c11.8,8.9,25.5,20.6,30.2,25.7c6.9,7.8,8.3,10.7,8.3,19.4c0,11.4-3.6,19.7-11.8,27.5
		c-5.1,4.7-5.6,6.5-4.5,16.1c1.1,10.1,0.7,11.4-5.8,17.4c-5.4,4.9-6.9,8.5-6.9,14.5c0,5.6-0.9,8-3.4,8s-3.4-2.7-3.4-11.2
		c0-6.3,1.1-11.2,2.2-11.2c3.8,0,11.2-8.7,11.2-13.4c0-2.5-2-6.3-4.5-8.3c-4.2-3.6-4-3.8,4.7-11.4c16.5-14.1,19.9-28.4,9.4-40.7
		c-3.1-3.8-15.6-14.5-27.3-23.5c-21.9-16.5-34.4-28.8-38.7-38c-2.2-5.1-2.5-4.9-9.4,5.1c-3.8,5.8-15.9,17.4-27,26.1
		c-10.9,8.5-25,20.3-31.1,26.1c-10.5,10.5-10.7,10.9-9.6,21.2c0.9,9.4,2.7,12.1,12.3,21c10.9,10.1,11.2,10.5,6.9,13.9
		c-2.2,2-4.2,5.8-4.2,8.3c0,4.7,7.4,13.4,11.2,13.4c1.3,0,2.2,4.9,2.2,11.2c0,8.5-0.9,11.2-3.4,11.2c-2.5,0-3.4-2.5-3.4-8
		c0-6-1.6-9.6-6.9-14.5c-6.5-6-6.9-7.4-5.8-17.4c1.1-9.6,0.7-11.4-4.5-16.1c-9.4-8.9-12.7-18.1-12.1-32.6
		c0.2-7.4,13.2-20.6,39.5-40.9c28.8-22.3,32.2-26.8,32.2-44c0-7.4,1.1-14.3,2.7-15.9C501.5,48.6,510,49.5,512.7,54.2z M358.1,133.8
		c0.7,7.8,2.9,10.9,18.1,25.7c9.6,9.2,19.2,19.4,21.2,22.8c5.1,8,3.4,19.2-4.2,26.4c-4,3.8-5.1,6.5-4.2,10.5c1.6,6.3-5.4,23-9.6,23
		c-3.6,0-3.8-9.4-0.4-12.7c4.2-4.2,1.3-12.7-4.7-14.1l-5.6-1.3l5.1-1.8c2.7-0.9,8-4.2,11.6-7.4c11.4-9.4,9.4-14.5-14.5-39.1
		c-11.6-11.8-21.2-20.6-21.2-19.2c0,1.1-9.2,11.2-20.3,22.1c-18.1,18.1-20.1,20.8-18.8,26.1c2,8.3,5.4,11.6,15.6,16.3
		c6.3,2.9,7.6,4.2,4.2,4.2c-2.7,0-6,1.6-7.6,3.4c-2.7,3.4-1.1,12.3,2.5,12.3c1.1,0,2,2.5,2,5.6c0,4-1.1,5.6-4.5,5.6
		c-2.7,0-4.7-1.6-4.9-4c-0.4-5.6-0.9-7.8-2.9-12.3c-0.9-2-1.1-6-0.4-8.5c0.7-2.7,0-4.9-2-5.8c-4.7-1.8-9.8-12.7-9.8-21
		c0-6.3,3.1-10.3,20.1-27c15.6-15.6,20.3-21.7,21.4-28.2c2-10.9,2.7-12.1,8.3-11.2C356.5,124.6,357.7,126.6,358.1,133.8z
		 M663.3,129.5c0.7,2,1.3,6,1.3,9.4c0,4.2,4.9,10.5,19.2,24.6c10.5,10.5,20.1,21.4,21.2,24.6c2.7,6.9-0.7,18.3-7.1,24.1
		c-3.1,2.7-4,5.6-3.1,9.2c0.7,2.9-0.2,8-2.2,11.8c-1.8,3.6-3.4,12.1-3.4,19c0,10.7-0.4,12.3-4.5,12.3c-4,0-4.5-1.6-4.5-15.4
		c0-11.8,0.9-15.6,3.6-16.8c2.2-0.9,3.1-3.4,2.7-7.4c-0.4-4.9-2-6.5-7.4-7.4l-6.7-1.3l8.3-2.9c9.2-3.1,17.4-11.8,17.4-18.5
		c0-2.5-9.2-14.1-20.6-25.9l-20.8-21.7l-19,19.7c-10.5,10.9-19.9,22.1-21,25c-2.9,7.4,3.4,16.1,15,21.2c8.5,3.8,8.9,4.2,3.4,4.2
		c-7.8,0.2-11.4,10.5-5.4,14.7c4.7,3.6,4.7,11.8-0.2,12.7c-4.5,0.9-10.1-10.5-10.5-21.7c0-3.8-2.5-9.8-4.9-13.4
		c-11.4-16.1-9.6-21.2,15.6-46.2c14.3-14.1,19.2-20.3,19.2-24.6c0-9.2,2.2-13,7.8-13C659.7,125.9,662.6,127.5,663.3,129.5z
		 M808.1,239c4.9,4.7,13.4,14.5,18.8,21.9c8,10.5,9.8,14.7,9.8,22.3c-0.2,19.9-12.1,39.3-28.8,46.7c-13.4,6-57,6.9-69.5,1.3
		c-27-12.1-42-43.3-32.6-67.9c5.1-13,22.8-29.3,35.5-32.2c5.1-1.1,20.1-2,33.5-1.6l23.9,0.4L808.1,239z M300.5,236.1
		c-5.4,2.5-13.4,8.5-17.9,13l-7.8,8l-25.2,1.1c-23.9,0.9-25.5,1.3-31.7,7.4c-21,20.1-7.8,42.9,23.5,40.7
		c18.8-1.6,38.2-8.5,37.3-13.9c-1.6-8.3,4.5-25.2,11.4-32.4c13.2-13.6,11.8-13.4,124-13.4c114.4,0,114.8,0,107.2,13
		c-3.1,5.1-4,11.8-4,28.2c0,18.8,0.7,22.1,4.7,26.1c8.5,8.5,9.8,4.9,10.5-30.6c0.2-18.3,1.6-34.2,2.7-35.3c1.3-1.3,17.7-2,38.4-1.6
		c42.4,0.4,44,1.1,44.5,21.2l0.2,11.4l3.1-13.4c1.8-7.4,4.9-14.7,6.9-16.3c4.9-3.6,40-3.8,42.2-0.2c0.9,1.6,0.2,3.4-1.6,4.5
		c-9.4,5.4-11.2,8.5-15.4,29.7c-7.1,35.1-6.5,37.1,10.9,37.1c16.8,0,20.6-15.9,8.9-38.2c-5.8-11.6-3.8-14.1,12.1-14.3H697l0.7,8.3
		c0.7,7.1,0,8.5-3.8,8.5c-2.5,0-4.9,0.9-5.6,1.8c-1.8,2.9,5.6,12.7,17.2,22.8c13.2,11.6,15.9,16.3,12.7,22.3
		c-2.2,4.2-4.7,4.5-49.4,4.5h-46.7l1.3-25.2l1.3-25l-6.9,11.4c-5.1,8.9-8.9,12.3-16.1,15.2c-11.2,4.5-21.9,3.4-27.7-2.9
		c-8.3-9.4,3.1-18.5,12.5-10.1c7.4,6.7,10.9,2.5,10.9-13.4c0-13-0.7-15-6.7-21c-7.8-7.8-17-10.5-25.2-7.4l-6,2.5v27.9v28.2l7.8,6.7
		c14.1,12.5,12.5,13.2-32.2,13.2c-29.7,0-40.7-0.7-42-2.9c-0.9-1.3-2.2-16.8-2.9-34.2c-1.3-36-2.7-39.5-15.4-38.4
		c-10.9,0.9-13.6,6.9-13.6,32.6c0,17.7,0.7,21.2,4.5,25c2.5,2.5,4.5,7.4,4.5,11.2v6.7H449c-20.6,0-21.2-0.2-21.2-5.1
		c0-2.7,2-8.3,4.5-12.3c3.6-5.6,4.5-10.9,4.2-24.6c0-9.4-1.1-20.8-2.7-25c-2.2-6.7-3.8-7.8-10.9-8.5c-12.5-1.1-15.2,4.5-15.2,31.5
		c0,18.8,0.7,23,4.5,27.7c2.5,3.1,4.5,8,4.5,10.9c0,5.4-0.4,5.4-21,5.4c-18.8,0-21.2-0.4-22.6-4.2c-1.3-4-1.6-4-12.3,0
		c-20.6,7.8-48.7,3.6-63.5-9.4l-7.6-6.5l-10.9,6.7c-15.2,9.4-36.2,14.3-54.1,12.5c-26.8-2.5-51.6-19.7-51.6-35.5
		c0-10.3,10.5-25.7,26.8-39.3l13.6-11.4h-19h-19.2v-8.9v-8.9H243l67.5,0.2L300.5,236.1z"/>
	<path class="st3" d="M742.6,253.1c-8.3,8.3-8.5,19.2-1.1,34.9c8.3,17.7,25,30.2,40.4,30.2c9.2,0,19-11.2,19-21.7
		c-0.2-17-13.2-37.1-29.5-45.6C759.4,244.6,750.4,245.2,742.6,253.1z"/>
	<path class="st3" d="M371.9,263.8c-6.3,2.7-13,3.1-35.1,2c-28.8-1.6-36.4,0-36.4,7.1c0,7.8,4.7,9.4,28.2,9.4
		c12.7,0,23.5,0.9,24.4,2.2c0.7,1.1-0.7,4-2.9,6.3c-3.6,3.6-6.7,4-21.9,3.1c-20.6-1.1-25,1.3-21,11.6c6.3,17,52.7,16.5,72.2-0.4
		c3.1-2.7,3.8-7.1,3.8-24.4c0-11.4-0.7-20.8-1.6-20.6C380.4,260.2,376.2,262,371.9,263.8z"/>
</g>
</svg>
